<svg width="2322" height="345" viewBox="0 0 2322 345" fill="none" xmlns="http://www.w3.org/2000/svg">
<path d="M1684.9 287.899C1679.8 285.599 1674.1 285.699 1668.8 284.199C1646.3 277.599 1631 264.099 1627 240.299C1623.6 219.699 1625.9 200.099 1641.1 184.099C1651.7 173.099 1665.6 168.099 1680.1 164.399C1700.3 159.199 1721 156.999 1741.4 153.499C1746.3 152.699 1751.2 151.499 1755.9 149.699C1768.8 144.599 1773.8 135.699 1771.5 121.999C1769.2 108.099 1761.3 99.1994 1747.7 95.6994C1730.9 91.3994 1713.9 91.4993 1697.3 96.2993C1681.1 100.999 1672.4 112.499 1670.5 129.099C1670.1 132.999 1668.7 133.799 1665.2 133.699C1656.5 133.499 1647.8 133.499 1639.2 133.699C1635.5 133.799 1634.2 132.799 1634.5 128.899C1637 100.399 1651.2 78.8994 1680.3 68.3994C1700 61.2994 1720.3 60.1993 1741 61.7993C1753.1 62.6993 1764.8 64.4994 1776 69.3994C1794 77.1994 1804.1 90.8994 1806.6 110.399C1807.3 115.999 1807.4 121.599 1807.4 127.199C1807.4 164.499 1807.4 201.799 1807.4 239.099C1807.4 242.299 1807.4 245.499 1808.3 248.599C1809.9 254.099 1812 255.599 1817.7 255.899C1821.6 256.099 1825.2 254.899 1829.4 254.199C1829.4 263.099 1829.4 271.699 1829.4 280.399C1829.4 282.499 1827.7 282.799 1826.4 283.299C1822.2 284.899 1818 286.299 1813.8 287.799H1796.4C1796.2 286.799 1795.3 286.999 1794.6 286.799C1782.4 283.499 1775.8 275.299 1774.3 262.899C1774 260.499 1773.5 257.999 1773.1 255.199C1772.1 256.199 1771.4 256.799 1770.8 257.399C1758.1 271.399 1742.5 280.499 1724 284.599C1718.9 285.699 1713.8 286.799 1708.7 287.799H1684.9V287.899ZM1771.8 171.699C1768.1 173.299 1765.1 174.799 1762 175.899C1746.1 181.599 1729.3 181.999 1712.8 184.699C1701.2 186.599 1689.7 188.599 1679.5 194.799C1666.3 202.799 1662.2 215.199 1664 229.699C1665.6 242.299 1673.7 250.099 1685.7 253.399C1706.2 258.899 1726.1 256.999 1744.9 246.999C1757.7 240.199 1767 230.099 1770.2 215.699C1773.4 201.399 1771 186.699 1771.7 171.699H1771.8Z" fill="#ffffff"/>
<path d="M449 63.9992C481.3 63.9992 513.6 63.1993 545.9 64.1993C581.7 65.1993 613.1 81.3992 627.8 121.299C641.1 157.499 640.8 194.399 626.1 230.299C614.2 259.299 591.9 276.299 560.8 281.699C553.4 282.999 546 283.499 538.6 283.499C508.7 283.499 478.9 283.499 449 283.499V64.0992V63.9992ZM487.5 173.199C487.5 198.199 487.5 223.199 487.5 248.099C487.5 249.999 486.9 251.999 490.3 251.899C508.7 251.399 527.1 252.799 545.5 250.399C571.9 246.899 589.7 230.499 595.4 204.299C599.1 186.999 599.2 169.499 597 152.099C592.6 116.499 573.1 99.0993 538.1 95.8993C522.8 94.4993 507.3 95.3992 492 94.9992C488.4 94.9992 487.5 95.9992 487.5 99.4992C487.7 123.999 487.5 148.599 487.5 173.099V173.199Z" fill="#ffffff"/>
<path d="M2212.4 287.899C2208.8 285.599 2204.6 286.099 2200.7 285.299C2183.1 281.699 2166.9 275.199 2154.5 261.499C2143.4 249.199 2138.5 234.499 2137.3 218.299C2137.1 215.599 2137.8 214.499 2140.7 214.499C2150.3 214.699 2159.9 214.499 2169.5 214.499C2171.1 214.499 2172.8 214.199 2173.1 216.799C2174.8 235.899 2185.9 247.199 2203.7 252.099C2224.8 257.899 2246.1 258.199 2266.6 249.199C2276.5 244.899 2282.3 237.099 2283 225.899C2283.7 214.499 2278.6 206.399 2269.2 200.499C2264.3 197.399 2258.9 195.299 2253.4 193.499C2236 187.799 2217.9 185.399 2200.3 180.699C2187.5 177.299 2174.9 173.299 2163.8 165.799C2150.5 156.799 2143.2 144.199 2142 128.199C2139.6 97.5991 2156.6 78.0991 2182.1 68.2991C2199.9 61.3991 2218.3 59.9991 2237.2 61.5991C2249.6 62.6991 2261.6 64.5991 2273.1 69.3991C2294.9 78.4991 2306.5 95.3991 2310.2 118.199C2311.9 128.699 2311.6 128.799 2301.1 128.799C2293.6 128.799 2286.2 128.799 2278.7 128.799C2276.9 128.799 2275.7 128.799 2275.3 126.399C2272.5 107.999 2260.4 98.3991 2243.2 94.7991C2226.1 91.1991 2209 91.3991 2192.8 99.2991C2176.5 107.299 2174.8 127.899 2189.5 138.599C2200.5 146.599 2213.5 149.399 2226.3 152.499C2243.4 156.599 2260.8 159.399 2277.5 165.299C2286.6 168.599 2295.2 172.799 2302.7 178.799C2311.2 185.599 2316.8 194.199 2319.4 204.799C2319.8 206.299 2319.6 208.099 2321.2 209.199V228.399C2320.3 228.799 2320.4 229.599 2320.3 230.299C2318.8 238.699 2316.3 246.799 2311.5 253.999C2299.8 271.599 2282.1 279.599 2262.4 284.099C2255 285.799 2247.3 286.599 2239.8 287.799H2212.4V287.899Z" fill="#ffffff"/>
<path d="M1004.1 224.199C1004.1 172.599 1004.1 120.899 1004 69.2991C1004 64.8991 1005 63.5991 1009.4 63.7991C1018.8 64.1991 1028.3 63.9991 1037.7 63.7991C1040.6 63.7991 1041.2 64.5992 1041.2 67.3992C1041.2 138.199 1041.2 209.099 1041.2 279.899C1041.2 282.799 1040.4 283.399 1037.7 283.399C1026.3 283.299 1014.9 283.199 1003.4 283.399C1000.9 283.399 999.6 282.499 998.4 280.499C969.2 233.199 939.9 185.899 910.6 138.599C907.3 133.299 903.9 127.899 899.7 122.799C899.7 124.199 899.7 125.699 899.7 127.099C899.7 177.699 899.7 228.199 899.7 278.799C899.7 282.699 898.6 283.499 894.9 283.399C885.8 283.099 876.6 283.099 867.5 283.399C863.8 283.499 862.8 282.699 862.8 278.799C862.9 210.899 862.8 142.899 862.9 74.9992C862.9 71.3992 861.2 66.4991 863.6 64.5991C865.9 62.7991 870.5 63.8992 874.2 63.8992C882.7 63.8992 891.3 63.9992 899.8 63.8992C902.6 63.8992 904.1 64.7992 905.5 67.1992C937.2 118.499 969 169.799 1000.8 220.999C1001.6 222.199 1002.3 223.499 1003.1 224.699C1003.4 224.599 1003.6 224.399 1003.9 224.299L1004.1 224.199Z" fill="#ffffff"/>
<path d="M670.9 173.499C670.9 138.499 670.9 103.399 670.9 68.3994C670.9 65.0994 671.5 63.7993 675.3 63.7993C725.3 63.8993 775.2 63.8993 825.2 63.7993C828.6 63.7993 829.6 64.6993 829.4 68.0993C829.1 76.2993 829.1 84.5993 829.4 92.7993C829.6 96.5993 828.2 97.1993 824.8 97.1993C788.1 97.0993 751.4 97.1993 714.7 96.9993C710.4 96.9993 709.5 98.1993 709.5 102.299C709.7 118.299 709.7 134.299 709.5 150.299C709.5 153.799 710.4 154.499 713.8 154.499C747.8 154.399 781.7 154.499 815.7 154.299C819.5 154.299 820.6 155.199 820.4 158.999C820.1 166.299 820.1 173.599 820.4 180.899C820.6 184.999 819.6 186.299 815.3 186.299C781.9 186.099 748.6 186.299 715.2 186.099C710.6 186.099 709.4 187.099 709.5 191.699C709.8 209.499 709.7 227.299 709.5 245.199C709.5 249.099 710.2 250.299 714.4 250.299C751.7 250.099 789 250.299 826.4 250.099C830.5 250.099 831.5 251.099 831.3 255.099C831 263.499 831.1 271.899 831.3 280.199C831.3 282.799 830.5 283.399 828 283.399C776.8 283.399 725.6 283.399 674.5 283.399C671.2 283.399 671 282.099 671 279.399C671 244.099 671 208.699 671 173.399L670.9 173.499Z" fill="#ffffff"/>
<path d="M1227 283.399C1236.9 257.499 1246.6 231.999 1256.4 206.599C1274 160.599 1291.8 114.699 1309.3 68.6992C1310.6 65.1992 1312.2 63.5992 1316.3 63.6992C1326.9 64.0992 1337.6 63.9992 1348.3 63.6992C1351.5 63.6992 1352.8 64.7992 1353.9 67.5992C1375.5 123.999 1397.3 180.399 1419 236.799C1424.9 252.099 1430.7 267.299 1436.9 283.299C1432.4 283.299 1428.4 283.299 1424.4 283.299C1416 283.299 1407.6 283.199 1399.3 283.299C1396.3 283.299 1395.2 282.299 1394.2 279.599C1388.3 262.599 1382.1 245.699 1376.2 228.599C1375.2 225.699 1373.8 224.999 1371 224.999C1344.5 225.099 1318 225.199 1291.5 224.999C1288.2 224.999 1287.1 226.099 1286.1 228.999C1280.2 245.899 1274.1 262.699 1268.3 279.499C1267.4 282.199 1266.3 283.299 1263.3 283.299C1251.4 283.099 1239.6 283.299 1227.1 283.299L1227 283.399ZM1331.9 102.199C1331.6 102.199 1331.2 102.299 1330.9 102.399C1320 133.299 1309.1 164.299 1298.3 195.199C1298.9 195.499 1299.1 195.699 1299.4 195.699C1320.1 195.699 1340.8 195.699 1361.5 195.699C1365.2 195.699 1364 193.999 1363.3 191.999C1357 173.999 1350.8 155.999 1344.6 137.899C1340.4 125.899 1336.2 113.999 1331.9 101.999V102.199Z" fill="#ffffff"/>
<path d="M1173.4 190.199C1173.4 219.699 1173.4 249.299 1173.4 278.799C1173.4 282.699 1172.3 283.599 1168.6 283.499C1158.7 283.199 1148.8 283.199 1138.9 283.499C1135.2 283.599 1134.5 282.499 1134.5 278.999C1134.6 220.199 1134.5 161.399 1134.7 102.699C1134.7 97.9992 1133.5 96.9991 1129 97.0991C1109.2 97.3991 1089.4 97.0991 1069.6 97.2991C1066.3 97.2991 1064.8 96.8991 1065 92.9991C1065.4 84.8991 1065.4 76.7991 1065 68.7991C1064.8 64.3991 1066.4 63.9991 1070.1 63.9991C1110.9 64.0991 1151.7 63.9991 1192.5 63.9991C1207.9 63.9991 1223.3 64.1992 1238.6 63.8992C1242.6 63.8992 1243.4 65.0992 1243.3 68.6992C1243 76.7992 1243.1 84.7992 1243.3 92.8992C1243.4 96.2992 1242.5 97.2992 1239 97.1992C1218.6 96.9992 1198.2 97.1991 1177.8 96.9991C1174.2 96.9991 1173.3 97.9991 1173.3 101.599C1173.5 131.099 1173.3 160.699 1173.3 190.199H1173.4Z" fill="#ffffff"/>
<path d="M1457.4 173.699C1457.4 138.699 1457.4 103.699 1457.4 68.5991C1457.4 64.8991 1458.2 63.6992 1462.1 63.7992C1472 64.0992 1481.9 64.0992 1491.8 63.7992C1495.6 63.6992 1496.2 64.9992 1496.2 68.3992C1496.2 127.199 1496.2 185.899 1496 244.699C1496 248.999 1496.9 250.299 1501.4 250.299C1535.2 250.099 1569 250.299 1602.8 250.099C1606.5 250.099 1607.7 250.899 1607.6 254.799C1607.3 262.899 1607.3 270.899 1607.6 278.999C1607.7 282.499 1606.9 283.499 1603.2 283.499C1563.6 283.299 1524 283.499 1484.4 283.499C1476.8 283.499 1469.2 283.299 1461.6 283.499C1458.1 283.599 1457.4 282.499 1457.4 279.199C1457.5 243.999 1457.4 208.899 1457.4 173.699Z" fill="#ffffff"/>
<path d="M2117.3 241.999C2117.3 254.999 2117.3 266.999 2117.3 278.999C2117.3 281.499 2115.5 281.899 2113.8 282.499C2098.5 288.199 2082.9 288.499 2067.1 285.199C2046.2 280.899 2028 271.799 2015.2 254.099C2006.7 242.299 2002.6 228.999 2002.6 214.399C2002.6 165.999 2002.6 117.599 2002.6 69.0993C2002.6 65.5993 2003.6 64.7993 2007 64.7993C2035.3 64.8993 2063.6 64.8993 2092 64.7993C2095.7 64.7993 2096.7 65.7994 2096.6 69.3994C2096.3 77.7994 2096.4 86.0993 2096.6 94.4993C2096.6 97.8993 2095.7 98.8993 2092.3 98.7993C2075.6 98.5993 2058.8 98.6993 2042.1 98.7993C2035.3 98.7993 2036.2 97.6994 2036.2 104.899C2036.2 138.699 2036.6 172.499 2036 206.299C2035.5 234.199 2049.9 246.899 2074.1 251.999C2089.5 255.299 2104.1 253.099 2117.4 241.899L2117.3 241.999Z" fill="#ffffff"/>
<path d="M1893.2 96.799C1900.4 89.399 1907.1 82.099 1915.2 76.199C1927.4 67.299 1941.1 63.199 1955.9 61.999C1960.6 61.599 1965.3 60.999 1970 61.099C1972.6 61.099 1973.5 61.999 1973.5 64.499C1973.5 75.099 1973.5 85.799 1973.5 96.399C1973.5 98.999 1971.9 98.799 1970.1 98.899C1962.1 99.399 1954 99.899 1946.2 101.899C1921.8 107.999 1906.6 123.399 1899.8 147.399C1896.7 158.299 1895.2 169.399 1895.2 180.699C1895.1 212.999 1895.1 245.299 1895.2 277.499C1895.2 281.599 1894.1 282.699 1890.1 282.499C1881.6 282.199 1873 282.199 1864.5 282.499C1860.3 282.699 1859.2 281.399 1859.2 277.199C1859.3 212.799 1859.2 148.399 1859.2 83.999C1859.2 79.299 1859.2 74.599 1859.2 69.799C1859.2 67.399 1859.7 66.199 1862.5 66.199C1871.2 66.199 1879.9 66.099 1888.5 65.899C1891.9 65.899 1893.3 66.999 1893.1 70.699C1892.8 79.299 1893.1 87.999 1893.1 96.599L1893.2 96.799Z" fill="#ffffff"/>
<path d="M228.656 128.203C223.133 127.706 217.797 126.03 212.399 124.789C174.858 116.283 137.318 107.715 99.7771 99.0858C97.5433 98.5892 97.6674 99.2721 97.9777 101.01C104.059 130.066 110.14 159.059 116.221 188.114C122.301 217.169 128.32 246.162 134.401 275.218C139.055 297.63 143.647 320.042 148.363 342.455C148.797 344.565 148.363 345 146.315 345C122.674 345 99.0325 344.938 75.4533 345C73.1575 345 72.599 343.945 72.2267 342.144C68.4416 323.954 64.5945 305.825 60.8095 287.697C56.7141 268.326 52.6808 248.956 48.5855 229.648C43.1871 203.945 37.7887 178.243 32.3283 152.54C27.5504 129.941 22.7725 107.405 17.9946 84.8066C12.9065 60.7801 7.88041 36.6916 2.79227 12.6651C1.92356 8.44341 0.930757 4.2217 0 0C0.558454 0 1.11688 0 1.67533 0C9.49369 2.42127 17.5603 3.78712 25.5027 5.58755C59.6305 13.348 93.8203 21.0464 128.01 28.6827C165.551 37.1262 203.153 45.4454 240.756 53.8888C244.603 54.758 248.45 55.8134 252.297 56.4963C254.283 56.8688 254.221 57.6138 253.662 59.1659C247.147 77.1702 240.632 95.1745 234.178 113.179C232.379 118.146 230.331 122.988 229.028 128.141C228.842 128.141 228.656 128.141 228.47 128.141L228.656 128.203Z" fill="#ffffff"/>
<path d="M228.91 128.589C229.096 128.589 229.283 128.589 229.469 128.589C238.34 126.544 247.212 124.562 256.084 122.517C277.735 117.561 299.325 112.605 320.915 107.648C339.216 103.435 357.518 99.2844 375.819 95.0715C384.381 93.089 393.004 91.1064 402 89C401.131 93.2129 400.325 97.2399 399.456 101.205C393.687 127.783 387.855 154.362 382.085 181.002C376.998 204.235 371.973 227.406 366.948 250.639C361.55 275.421 356.215 300.202 350.88 324.984C349.639 330.746 348.15 336.508 347.095 342.331C346.723 344.5 345.916 345.057 343.807 344.995C321.225 344.934 298.643 344.995 276.06 344.995H270.353C271.904 337.623 273.455 330.436 275.005 323.249C279.286 303.734 283.567 284.218 287.848 264.703C292.873 241.717 297.96 218.67 302.985 195.685C304.102 190.605 304.164 190.605 298.829 191.596C273.082 196.243 247.398 200.952 221.652 205.66C215.262 206.837 208.872 207.952 202.482 209.13C201.737 209.253 200.993 209.13 200 209.13C203.288 199.96 206.514 190.977 209.74 181.993C215.944 164.708 222.21 147.361 228.414 130.076C228.6 129.642 228.662 129.208 228.786 128.713L228.91 128.589Z" fill="#ffffff"/>
</svg>
