<svg width="109" height="97" viewBox="0 0 109 97" fill="none" xmlns="http://www.w3.org/2000/svg">
<circle cx="40" cy="40" r="40" fill="#8739E5"/>
<circle cx="103.5" cy="91.5" r="5.5" fill="#8739E5"/>
<circle cx="85.5" cy="77.5" r="10.5" fill="#8739E5"/>
<path fill-rule="evenodd" clip-rule="evenodd" d="M39.3131 18.193C36.67 20.3556 32.3165 21.6164 28.9267 21.2011C26.1726 20.8637 23.4031 21.5605 21.1914 23.3905C16.524 27.2522 16.0897 34.7129 20.1811 40.1447C20.182 40.1459 20.1824 40.1474 20.1822 40.1489L21.3626 41.5112C25.3528 46.1164 28.8138 51.153 31.6811 56.5271L34.4087 61.6393C35.2602 63.0894 36.9845 63.7775 38.5967 63.3105C40.3283 62.8091 41.4389 61.1221 41.2177 59.3295L39.9125 48.7527C39.7587 47.507 40.5305 46.3347 41.7338 45.9863C42.9371 45.6378 44.2158 46.2162 44.7516 47.3512L49.3007 56.9885C50.0717 58.6219 51.9119 59.4542 53.6435 58.9527C55.2558 58.4858 56.3455 56.9828 56.2902 55.3021L55.8637 49.5234C55.4152 43.4488 55.649 37.3421 56.5605 31.3174L56.8301 29.5351C56.8292 29.5339 56.8287 29.5324 56.8289 29.5309C57.3842 22.7533 53.03 16.6794 47.0213 15.9097C44.174 15.5449 41.4607 16.436 39.3131 18.193Z" fill="url(#paint0_linear_7_50)"/>
<defs>
<linearGradient id="paint0_linear_7_50" x1="19.7546" y1="22.9594" x2="54.5928" y2="56.9029" gradientUnits="userSpaceOnUse">
<stop stop-color="white"/>
</linearGradient>
</defs>
</svg>
