<svg width="402" height="345" viewBox="0 0 402 345" fill="none" xmlns="http://www.w3.org/2000/svg">
<path d="M228.656 128.203C223.133 127.706 217.797 126.03 212.399 124.789C174.858 116.283 137.318 107.715 99.7771 99.0858C97.5433 98.5892 97.6674 99.2721 97.9777 101.01C104.059 130.066 110.14 159.059 116.221 188.114C122.301 217.169 128.32 246.162 134.401 275.218C139.055 297.63 143.647 320.042 148.363 342.455C148.797 344.565 148.363 345 146.315 345C122.674 345 99.0325 344.938 75.4533 345C73.1575 345 72.599 343.945 72.2267 342.144C68.4416 323.954 64.5945 305.825 60.8095 287.697C56.7141 268.326 52.6808 248.956 48.5855 229.648C43.1871 203.945 37.7887 178.243 32.3283 152.54C27.5504 129.942 22.7725 107.405 17.9946 84.8066C12.9065 60.7801 7.88041 36.6916 2.79227 12.6651C1.92356 8.44341 0.930757 4.2217 0 0C0.558454 0 1.11688 0 1.67533 0C9.49369 2.42127 17.5603 3.78712 25.5027 5.58755C59.6305 13.348 93.8203 21.0464 128.01 28.6827C165.551 37.1262 203.153 45.4454 240.756 53.8888C244.603 54.758 248.45 55.8134 252.297 56.4963C254.283 56.8688 254.221 57.6138 253.662 59.1659C247.147 77.1702 240.632 95.1745 234.178 113.179C232.379 118.146 230.331 122.988 229.028 128.141C228.842 128.141 228.656 128.141 228.47 128.141L228.656 128.203Z" fill="#FF63DE"/>
<path d="M228.91 128.589C229.096 128.589 229.283 128.589 229.469 128.589C238.34 126.544 247.212 124.562 256.084 122.517C277.735 117.561 299.325 112.605 320.915 107.648C339.216 103.435 357.518 99.2844 375.819 95.0715C384.381 93.089 393.004 91.1064 402 89C401.131 93.2129 400.325 97.2399 399.456 101.205C393.687 127.783 387.855 154.362 382.085 181.002C376.998 204.235 371.973 227.406 366.948 250.639C361.55 275.421 356.215 300.202 350.88 324.984C349.639 330.746 348.15 336.508 347.095 342.331C346.723 344.5 345.916 345.057 343.807 344.995C321.225 344.933 298.643 344.995 276.06 344.995H270.353C271.904 337.623 273.455 330.436 275.005 323.249C279.286 303.734 283.567 284.218 287.848 264.703C292.873 241.718 297.96 218.67 302.985 195.685C304.102 190.605 304.164 190.605 298.829 191.596C273.082 196.243 247.398 200.952 221.652 205.66C215.262 206.837 208.872 207.952 202.482 209.13C201.737 209.253 200.993 209.13 200 209.13C203.288 199.96 206.514 190.977 209.74 181.993C215.944 164.708 222.21 147.361 228.414 130.076C228.6 129.642 228.662 129.208 228.786 128.713L228.91 128.589Z" fill="#111827"/>
</svg>
