<svg width="266" height="282" viewBox="0 0 266 282" fill="none" xmlns="http://www.w3.org/2000/svg">
<path d="M51.1182 22.3838C64.4939 7.72997 83.8652 -0.550216 100.868 1.02148L100.867 1.02246C105.568 1.42603 115.222 3.95083 123.17 6.5957L124.735 7.12598L124.742 7.12793C135.114 10.8675 142.754 12.7175 150.105 12.6826C157.452 12.6477 164.558 10.7305 173.86 6.85449L173.864 6.85254C180.147 4.31139 183.76 2.91415 187.472 2.16113C191.186 1.40759 194.98 1.30274 201.619 1.30273C208.114 1.30273 211.875 1.40657 215.146 2.05371C218.019 2.6219 220.5 3.60548 224.105 5.2627L225.724 6.01465L225.725 6.01562C245.39 15.2785 260.476 35.922 263.752 58.1348L263.965 59.626C266.023 74.9986 263.589 89.3203 254.542 116.049C250.156 129.277 247.943 135.885 246.59 143.089C245.236 150.296 244.743 158.106 243.823 173.739V173.74C242.126 201.749 239.577 217.778 234.041 233.534C228.8 248.76 222.734 260.726 216.272 268.897C209.819 277.058 202.904 281.511 195.965 281.511C192.361 281.511 189.463 280.788 186.991 279.128C184.527 277.473 182.535 274.918 180.677 271.345V271.344C179.23 268.595 178.229 265.534 177.2 259.679C176.172 253.829 175.11 245.154 173.556 231.163L173.266 228.743C171.758 216.778 169.368 206.849 166.309 199.381C163.036 191.392 159.038 186.321 154.634 184.491C150.903 182.943 148.413 182.398 146.172 182.909C143.924 183.421 141.821 185.018 138.93 188.051L138.929 188.052C135.678 191.441 132.845 196.7 130.506 203.594C128.17 210.479 126.338 218.96 125.068 228.76C124.432 234.273 123.478 241.703 122.742 247.515L122.1 252.655C120.264 267.619 118.136 273.897 113.163 277.996C110.583 280.207 107.002 281.366 103.277 281.492C99.5495 281.619 95.6358 280.715 92.3652 278.753L92.3613 278.75C84.7401 274.077 77.1242 263.539 70.8926 250.19C64.6509 236.82 59.7591 220.549 57.6318 204.311V204.31C56.3613 194.851 55.7218 189.841 55.5791 186.881C55.5076 185.397 55.5584 184.393 55.7305 183.585C55.8613 182.971 56.0587 182.486 56.3018 182.007L56.5596 181.525C57.3616 179.869 58.9787 178.983 60.668 178.849C62.3642 178.714 64.1841 179.328 65.4287 180.729L65.4424 180.744L65.4551 180.761C65.6045 180.96 65.7413 181.253 65.8701 181.586C66.0032 181.93 66.1425 182.357 66.2861 182.853C66.5736 183.845 66.8857 185.139 67.2051 186.647C67.844 189.665 68.5173 193.563 69.084 197.671C71.1288 211.844 74.7601 225.697 79.3047 237.411C83.7117 248.77 88.9615 258.075 94.4238 263.721L94.9531 264.256L94.9551 264.258C97.9135 267.216 100.308 268.648 102.194 268.76C103.113 268.814 103.929 268.557 104.67 267.976C105.422 267.385 106.113 266.444 106.729 265.108L106.73 265.106C106.949 264.637 107.257 263.503 107.622 261.79C107.982 260.1 108.387 257.899 108.811 255.341C109.657 250.225 110.576 243.694 111.353 236.986C115.591 199.686 121.96 182.903 135.188 174.42L135.194 174.415C141.221 170.684 147.322 169.409 153.262 170.586C159.008 171.725 164.546 175.148 169.688 180.745L170.185 181.294L170.187 181.296C179.634 192.032 184.163 208.159 187.132 239.966C188.335 252.776 189.604 260.648 191.424 264.91C192.331 267.036 193.334 268.163 194.438 268.615C195.534 269.064 196.869 268.904 198.583 268.115L198.587 268.113C200.212 267.384 202.176 265.654 204.318 263.109C206.449 260.578 208.718 257.289 210.962 253.506C215.449 245.939 219.816 236.431 222.772 227.138L222.774 227.134C227.561 212.493 229.96 196.286 231.515 169.865L231.807 164.869C232.492 153.723 233.236 146.002 234.634 138.749C236.232 130.457 238.682 122.792 242.854 111.335C254.146 79.7183 254.8 59.6715 245.427 42.0449V42.0439C242.561 36.6627 237.971 31.0521 232.824 26.3096C227.675 21.5645 222.004 17.7201 216.996 15.8418V15.8428C210.758 13.5297 205.317 12.5567 199.235 13.0098C193.141 13.4638 186.374 15.3518 177.485 18.8086L177.481 18.8096C170.631 21.4227 166.462 22.9219 162.656 23.7617C158.838 24.6042 155.401 24.7803 150.02 24.7803H150.013C139.623 24.6379 135.186 23.774 119.47 18.6768L119.466 18.6758C103.779 13.447 99.9048 12.7716 93.0869 13.3281L93.0859 13.3271C81.9221 14.3051 71.1458 19.8901 61.5996 29.8574L61.5977 29.8584C57.4921 34.1055 54.1077 36.7893 51.4932 37.8389C50.1809 38.3656 48.9945 38.5082 47.9902 38.1533C46.9692 37.7925 46.2455 36.9572 45.7861 35.7705V35.7695C44.9134 33.5857 44.6636 31.8538 45.4893 29.8184C46.2891 27.8466 48.0869 25.6266 51.1182 22.3838Z" fill="white" stroke="white"/>
<path d="M112.966 35.9404C114.281 35.2986 115.847 35.3023 117.045 36.3291L117.047 36.3311C117.284 36.5365 117.52 36.859 117.741 37.2207C117.969 37.5926 118.206 38.0449 118.438 38.541C118.788 39.2857 119.137 40.1451 119.441 41.0107L119.731 41.8809C120.385 44.0464 121.834 47.2888 123.076 49.3359L123.321 49.7285L123.326 49.7363C124.55 51.7122 126.806 53.9957 129.11 55.79C130.259 56.6845 131.406 57.446 132.425 57.9814C133.462 58.5266 134.302 58.8027 134.858 58.8027C135.443 58.8028 136.193 59.083 136.896 59.4639C137.617 59.8547 138.367 60.3948 138.963 60.9961C140.474 62.5212 140.913 64.2154 140.097 65.6924C139.318 67.1005 137.489 68.1144 134.953 68.585L134.954 68.5859C131.713 69.2205 128.233 71.6603 125.347 75.0518C122.467 78.4352 120.232 82.7032 119.44 86.8975C119.156 88.5116 118.739 89.8561 118.217 90.9004C117.696 91.9407 117.051 92.7199 116.292 93.1445C115.51 93.5817 114.652 93.617 113.803 93.2432C112.979 92.8805 112.19 92.1457 111.454 91.0889C110.971 90.4385 110.546 89.661 110.241 88.9258C109.942 88.2033 109.734 87.4653 109.734 86.9062C109.734 86.2911 109.468 85.2735 108.975 83.9971C108.488 82.7401 107.805 81.2898 107.021 79.834C105.443 76.905 103.499 74.028 101.993 72.6562L101.976 72.6387C100.41 71.0587 97.335 69.1578 95.2803 68.4668C93.4928 67.8657 92.0985 67.1167 91.127 66.2734C90.1559 65.4305 89.5756 64.463 89.5068 63.4385C89.4376 62.405 89.8955 61.4225 90.7744 60.5742C91.6482 59.7309 92.9576 58.9965 94.6719 58.4199C101.569 56.032 108.057 48.2192 110.153 39.5566C110.543 37.8775 111.655 36.5806 112.966 35.9404ZM113.894 54.207C113.65 54.4956 113.303 54.8852 112.885 55.3457C112.05 56.265 110.902 57.4991 109.691 58.8223L109.686 58.8291L105.541 63.2002L110.204 68.4795L110.207 68.4834L114.648 73.6172L116.606 70.7842C117.845 68.9094 120.013 66.5079 121.494 65.4404L123.577 63.8418L118.888 58.8271V58.8262C117.474 57.3486 116.163 56.0275 115.196 55.1025C114.711 54.6383 114.319 54.2803 114.046 54.0537C114.041 54.0494 114.035 54.0452 114.03 54.041C113.988 54.0929 113.943 54.1488 113.894 54.207Z" fill="white" stroke="white"/>
<path d="M44.7012 53.5C46.2232 53.5 47.6135 54.5919 48.833 56.4561C50.0644 58.3386 51.2033 61.1258 52.1992 64.7891C53.3874 69.1458 55.5598 74.8368 57.1924 77.6934L57.5117 78.2256L57.5127 78.2266C59.7409 81.7778 63.238 85.6289 67.1006 88.9824C70.9629 92.3356 75.1575 95.1632 78.7676 96.6914L81.9814 98.0254C84.8332 99.2264 86.6432 100.058 87.8047 100.796C88.5908 101.295 89.1197 101.775 89.4756 102.331C89.8258 102.878 89.9808 103.458 90.0908 104.106L90.1543 104.421C90.4125 106 89.8191 107.644 88.8105 108.9C87.7343 110.241 86.1174 111.225 84.374 111.226C83.5547 111.226 82.3468 111.539 80.8652 112.137C79.3979 112.728 77.7098 113.578 75.9482 114.604C72.4236 116.655 68.6393 119.389 65.7744 122.114C62.6477 125.102 59.4265 129.787 56.8076 134.796C54.1888 139.805 52.1981 145.089 51.5029 149.26C51.2163 150.98 50.7869 152.734 50.3389 154.186C50.115 154.911 49.8853 155.566 49.6641 156.106C49.4464 156.638 49.2252 157.09 49.0137 157.386L49 157.404L48.9844 157.422C47.948 158.618 46.2416 159.218 44.6602 159.256C43.1028 159.293 41.4734 158.782 40.6982 157.513V157.514C40.6959 157.51 40.6937 157.506 40.6914 157.503C40.6895 157.5 40.6875 157.496 40.6855 157.493V157.492C40.51 157.22 40.3019 156.735 40.0801 156.138C39.8459 155.507 39.5773 154.703 39.293 153.778C38.7239 151.929 38.0854 149.585 37.5176 147.172L37.5137 147.158C36.5327 142.394 34.1473 135.947 32.3438 132.894L31.8848 132.145C29.5258 128.39 26.1947 124.485 22.6406 121.145C18.8445 117.577 14.8308 114.689 11.5166 113.308V113.307C6.94419 111.478 4.34592 110.364 2.8457 109.376C2.08276 108.874 1.56999 108.383 1.22363 107.819C0.878084 107.257 0.723453 106.662 0.613281 106.001L0.614258 106C0.230427 104.055 0.830737 102.337 2.34961 100.875C3.84616 99.4346 6.23087 98.2395 9.43945 97.2412L9.44531 97.2402C12.6691 96.28 16.8473 93.6455 20.875 90.2334C24.8903 86.8318 28.7031 82.7019 31.2148 78.7979C33.1663 75.5919 35.8363 69.2735 37.0986 64.7852C38.13 61.122 39.2958 58.3359 40.5449 56.4541C41.7818 54.5909 43.1805 53.5001 44.7012 53.5ZM41.9805 84.6631C41.249 86.0529 39.7021 88.206 37.8076 90.5254C35.9067 92.8526 33.6321 95.3766 31.4248 97.5127L31.4238 97.5137L23.8857 104.781L30.0049 110.501H30.0039C33.7099 113.782 38.679 119.602 41.1084 123.458L45.1553 129.654L47.4521 125.062L47.4619 125.045C49.0504 122.157 53.7535 116.323 58.0078 112.068L58.0146 112.062L65.3955 104.948L59.4473 99.793L59.4443 99.791C55.8741 96.6492 50.8961 90.8174 48.3271 86.8213L48.3242 86.8164L44.2607 80.3398L41.9805 84.6631Z" fill="white" stroke="white"/>
</svg>
