<svg width="293" height="262" viewBox="0 0 293 262" fill="none" xmlns="http://www.w3.org/2000/svg">
<path d="M60.5762 1.125C68.5414 0.958014 77.5336 2.32512 88.9502 5.17969L91.2666 5.77051L91.2705 5.77148C106.441 9.845 119.923 9.5697 137.526 5.06348C149.591 1.94078 154.305 1.51271 166.227 1.93848H166.229C175.094 2.29308 181.771 3.42857 187.611 5.93652C193.09 8.28946 197.799 11.8351 202.873 17.0107L203.893 18.0684L203.896 18.0703C209.223 23.7533 212.904 28.9633 215.355 34.8672C217.806 40.7692 219.014 47.3336 219.439 55.708L219.565 58.0576C219.848 63.1926 220.072 65.9788 220.777 68.2002C221.574 70.7085 222.989 72.5077 225.972 76.2002C244.76 99.2589 247.475 132.713 232.23 157.36L232.229 157.359L229.751 161.535L258.588 189.253L258.59 189.255C266.579 197.032 274.076 204.493 279.717 210.275C282.537 213.166 284.895 215.64 286.621 217.525C287.484 218.468 288.192 219.267 288.721 219.898C289.238 220.517 289.615 221.009 289.784 221.327C290.386 222.455 290.892 224.211 291.248 226.1C291.606 227.999 291.822 230.08 291.822 231.883C291.822 240.516 286.664 247.148 279.617 250.328C272.574 253.507 263.625 253.25 255.984 248.132C255.295 247.672 253.947 246.391 252.142 244.535C250.318 242.661 247.986 240.155 245.307 237.202C239.948 231.295 233.194 223.586 226.335 215.525L226.333 215.523C215.726 202.937 209.413 195.601 205.435 191.517C203.442 189.471 202.062 188.271 201.043 187.634C200.035 187.003 199.461 186.972 199.023 187.118L199.011 187.123L198.997 187.127C197.424 187.556 190.902 188.974 184.831 190.244L184.83 190.243C179.609 191.372 176.554 191.951 173.56 191.951C170.562 191.951 167.646 191.372 162.704 190.242V190.241C156.768 188.969 150.544 187.555 148.84 187.129L148.817 187.124L148.796 187.116C148.076 186.864 147.6 186.721 147.283 186.696C147.132 186.684 147.07 186.705 147.054 186.713C147.048 186.715 147.047 186.717 147.045 186.719C147.042 186.722 147.033 186.734 147.021 186.764C146.993 186.831 146.965 186.958 146.963 187.183C146.961 187.403 146.982 187.686 147.031 188.048C147.13 188.77 147.328 189.747 147.61 191.053L147.754 191.704C148.518 195.399 149.954 205.457 151.014 214.862H151.013C152.002 222.987 152.884 229.416 153.759 234.392C154.635 239.376 155.498 242.87 156.438 245.14C157.394 247.445 158.349 248.298 159.296 248.396C159.786 248.448 160.355 248.311 161.035 247.944C161.716 247.578 162.475 246.999 163.326 246.217C164.364 245.244 165.789 243.226 167.429 240.47C169.061 237.726 170.879 234.298 172.704 230.551C176.127 223.524 179.562 215.401 181.834 208.612L182.272 207.273C183.194 204.296 184.076 201.879 184.95 199.996C185.822 198.119 186.703 196.735 187.638 195.857C188.589 194.964 189.624 194.575 190.745 194.767C191.829 194.951 192.9 195.664 193.988 196.752C195.263 198.026 196.063 198.919 196.184 200.55C196.241 201.331 196.143 202.261 195.915 203.461C195.687 204.664 195.321 206.171 194.826 208.114L194.825 208.119C192.342 217.485 188.371 227.801 184.029 236.697C179.696 245.576 174.962 253.105 170.932 256.848C168.714 258.917 164.93 260.502 161.034 260.936L161.035 260.937C157.893 261.298 155.133 260.968 152.721 259.809C150.307 258.648 148.288 256.678 146.589 253.84C143.206 248.19 141.042 239.01 139.558 225.577L139.226 222.66C135.779 193.081 131.965 180.649 124.421 172.565V172.564C120.325 168.191 116.067 166.5 111.903 167.238C107.841 167.959 103.729 171.015 99.8447 176.493L99.4697 177.031C92.9652 186.517 90.1186 195.74 87.1211 218.657L86.8301 220.919C85.2052 233.706 84.035 241.445 82.6465 246.661C81.2494 251.909 79.623 254.634 77.0889 257.386L77.083 257.392C75.6425 258.904 74.3465 259.914 72.7686 260.534C71.1981 261.151 69.3925 261.364 66.9658 261.364C64.3246 261.364 62.47 261.151 60.5684 260.256C58.9234 259.482 57.2719 258.211 55.0391 256.201L54.0449 255.294C48.3941 250.072 42.7417 241.49 37.8867 231.23C33.0286 220.964 28.9519 208.983 26.4697 196.929L26.1738 195.482C24.6814 187.824 23.0146 173.967 22.2188 163.356L21.8545 158.723C21.0172 148.402 20.2434 141.394 19.0273 135.175C17.6391 128.076 15.6708 121.991 12.3525 113.166V113.165C-0.671915 78.7628 -2.1359 56.8326 7.7041 36.0117L7.70508 36.0088C10.2121 30.78 14.8836 24.7267 20.2256 19.3848C25.5652 14.0451 31.6191 9.3717 36.9229 6.93359C44.7532 3.23197 52.0677 1.30339 60.5762 1.125ZM83.3447 16.7646C62.996 9.88885 43.1286 13.6918 29.7129 26.9678L29.7119 26.9688C20.8821 35.6585 15.8128 45.6634 14.4131 57.6309C13.0117 69.6135 15.2856 83.5982 21.209 100.24H21.208C26.2262 114.235 29.0992 122.884 30.9268 130.886C32.7557 138.894 33.5352 146.241 34.3838 157.626V157.627C36.1053 181.463 37.452 190.375 41.5635 204.988L42.4238 207.993L42.4248 207.996C45.0299 217.149 48.7611 226.018 52.7344 233.068C54.7211 236.593 56.7643 239.656 58.751 242.068C60.6187 244.336 62.4151 246.004 64.0479 246.953L64.373 247.133L64.3809 247.138L64.3887 247.142C66.2378 248.208 67.2523 248.412 68 248.045C68.3874 247.855 68.7724 247.481 69.1826 246.831C69.5924 246.182 70.0031 245.298 70.459 244.141C70.6199 243.683 70.8415 242.72 71.1025 241.331C71.3639 239.941 71.6591 238.158 71.9678 236.103C72.5851 231.993 73.2555 226.804 73.8203 221.51V221.507C75.1631 209.563 76.1913 202.148 77.6484 196.088C79.1086 190.016 80.9969 185.316 84.043 178.799L84.0449 178.796C86.8216 172.958 90.4534 167.545 94.3398 163.248C98.2172 158.962 102.38 155.751 106.234 154.367L110.711 152.704L107.638 144.551L107.635 144.543C98.3819 118.777 103.795 92.9886 122.872 73.2002C143.333 51.8993 170.302 46.0486 198.283 56.7285L199.616 57.25L199.621 57.252L207.745 60.6045L206.851 52.6807V52.6768C205.172 36.7275 196.933 24.8656 182.817 18.1572L182.812 18.1553C176.934 15.2862 171.422 13.8216 164.734 13.7168C158.031 13.6118 150.127 14.8712 139.467 17.4834L139.468 17.4844C132.611 19.1809 128.233 20.1432 123.848 20.5889C119.46 21.0347 115.081 20.962 108.221 20.6084V20.6074C97.5947 20.182 89.6265 18.9071 83.3447 16.7656V16.7646ZM217.319 175.259L217.31 175.27L217.309 175.269L212.552 179.894L234.592 206.257C240.739 213.605 246.745 220.6 251.442 225.951C253.791 228.627 255.812 230.89 257.359 232.581C258.918 234.284 259.973 235.379 260.402 235.742C263.69 238.399 266.54 239.892 269.153 240.313C271.745 240.732 274.162 240.105 276.617 238.399L276.625 238.394C278.571 237.096 279.513 235.156 279.513 232.024C279.513 230.738 279.363 229.635 278.647 228.193C277.92 226.728 276.599 224.899 274.212 222.194C269.439 216.787 260.515 208.003 243.897 191.81L221.919 170.527L217.319 175.259ZM198.369 70.1826C180.269 61.6236 164.171 61.7647 146.496 70.4619L145.527 70.9463C125.352 81.3438 112.515 106.401 116.231 127.745L116.456 128.944C121.357 153.995 136.938 171.328 160.117 177.537C165.113 178.874 169.025 179.535 172.941 179.535C176.858 179.535 180.806 178.874 185.873 177.537L185.876 177.536C208.296 171.791 224.419 153.999 228.769 130.288V130.287C233.251 106.195 220.218 80.6875 198.369 70.1816V70.1826Z" fill="white" stroke="white"/>
</svg>
