<svg width="321" height="282" viewBox="0 0 321 282" fill="none" xmlns="http://www.w3.org/2000/svg">
<path d="M162.193 1.69531C177.253 0.1965 192.679 5.37198 205.078 14.6582C217.475 23.9428 226.884 37.3649 229.883 52.415L231.493 59.7998L267.286 60.0791H267.285C284.452 60.1497 293.629 60.2555 299.096 60.6992C301.833 60.9214 303.666 61.2307 305.12 61.6719C306.582 62.1156 307.639 62.6871 308.821 63.4033H308.82C310.214 64.212 311.767 65.5154 313.159 66.9258C314.556 68.34 315.82 69.8896 316.623 71.2041H316.622C317.346 72.3626 317.914 73.3958 318.341 75.291C318.762 77.1619 319.046 79.8685 319.24 84.3789C319.63 93.405 319.665 109.783 319.665 141.443C319.665 176.485 319.701 193.803 318.797 203.218C318.344 207.929 317.652 210.724 316.565 212.788C315.479 214.853 314.014 216.147 312.159 217.861C310.409 219.54 308.756 220.873 306.804 221.916C304.85 222.96 302.62 223.703 299.729 224.231C293.967 225.284 285.506 225.494 271.24 225.494H244.979L245.72 229.569L245.721 229.572C246.142 231.958 247.269 236.89 248.117 240.426L249.581 246.416L265.033 246.831L280.726 247.255L280.942 247.261L281.087 247.423L285.468 252.37L286.106 253.102C287.528 254.771 288.478 256.197 289.078 257.754C289.764 259.534 289.978 261.444 289.978 264.013C289.978 266.78 289.802 268.669 289.071 270.393C288.342 272.114 287.08 273.621 285.024 275.676L280.071 280.629H163.732L159.345 276.241V276.24C153.978 271.014 152.367 263.588 155.281 256.886C156.996 252.745 158.694 250.225 162.327 248.809C165.877 247.425 171.244 247.113 180.197 247.113C187.139 247.113 191.055 247.041 193.326 246.712C194.461 246.547 195.121 246.326 195.531 246.061C195.911 245.815 196.109 245.509 196.26 245.061C196.68 243.658 197.666 239.72 198.514 236.187C199.357 232.673 200.349 228.701 200.783 227.392C200.865 227.113 200.885 226.937 200.866 226.816C200.852 226.727 200.813 226.638 200.667 226.533C200.501 226.414 200.206 226.284 199.698 226.164C199.197 226.046 198.523 225.946 197.628 225.863C194.035 225.53 187.138 225.494 174.26 225.494C159.5 225.494 150.863 225.284 145.031 224.231C142.104 223.703 139.865 222.961 137.902 221.917C135.942 220.874 134.281 219.543 132.498 217.867C129.551 215.135 127.556 212.349 126.218 208.586C124.886 204.841 124.211 200.153 123.856 193.638L123.176 181.669H119.549C115.823 181.669 112.598 182.607 109.754 184.658C106.902 186.715 104.398 189.917 102.168 194.5C97.7003 203.681 94.3861 218.277 91.4883 239.904L91.4873 239.906C90.4968 247.052 89.3645 254.023 88.3379 259.51C87.8247 262.253 87.3371 264.628 86.9062 266.472C86.4801 268.295 86.0991 269.647 85.79 270.304L85.7861 270.312L85.7822 270.32C80.7105 280.174 69.9342 283.401 60.9062 278.014L60.9023 278.011C54.7999 274.278 48.6709 267.383 43.2432 258.585C37.8102 249.779 33.0564 239.028 29.7227 227.537C24.6186 210.098 23.4842 202.14 21.0801 170.321V170.318C20.0896 156.098 19.5964 148.994 18.3838 142.562C17.3237 136.938 15.7135 131.825 12.7207 122.909L11.3506 118.843C6.47368 104.353 3.63616 95.0287 2.12695 87.1455C0.614957 79.2476 0.437999 72.8072 0.863281 64.0889C1.14604 58.0807 1.46581 54.2584 2.29004 50.7285C3.11537 47.1941 4.44159 43.9742 6.70605 39.1621L7.12598 38.2783C16.0619 19.8011 32.6607 6.6202 52.5781 2.55176L53.5967 2.34766C64.1345 0.341389 75 1.59019 92.9668 6.80176H92.9678C102.079 9.41493 108.031 10.7062 114.196 10.7236C120.366 10.7411 126.781 9.48352 136.815 6.93945C145.735 4.53309 157.066 2.26541 162.188 1.69629L162.193 1.69531ZM169.944 13.8262C163.327 13.5468 155.79 14.9059 144.556 17.8027L144.557 17.8037C120.036 24.1818 106.079 24.3362 87.8672 18.3604H87.8662C75.9739 14.4197 65.4899 13.2347 56.0479 14.7734C46.6128 16.311 38.1813 20.5724 30.3984 27.583L30.3994 27.584C25.3583 32.205 21.1535 37.9503 18.2109 43.9756L18.209 43.9795C15.9453 48.5068 14.8122 50.9569 14.2432 54.2158C13.6698 57.5003 13.6674 61.6174 13.7383 69.4814L13.7754 72.5879C13.8925 79.5084 14.2619 84.3061 15.7041 90.4893C17.3573 97.577 20.421 106.49 26.1494 122.473L26.9121 124.637C30.5504 135.116 31.618 140.816 32.6807 155.825L33.0332 160.368C36.6348 206.205 38.8652 218.157 46.6406 237.528L46.9668 238.317C50.3733 246.452 54.8003 253.878 59.2012 259.315C61.4731 262.122 63.7274 264.387 65.8193 265.944C67.9238 267.511 69.8055 268.319 71.3418 268.319C71.648 268.319 72.1312 268.104 72.6846 267.601C73.2185 267.115 73.747 266.424 74.1455 265.627L74.1504 265.618L74.1543 265.61C74.2294 265.473 74.3448 265.154 74.4922 264.623C74.6353 264.107 74.7985 263.432 74.9775 262.613C75.3354 260.977 75.7531 258.789 76.2031 256.204C77.103 251.034 78.1268 244.291 79.0449 237.229L79.0459 237.228C83.7097 202.037 87.9604 188.724 98.4141 178.271C101.477 175.137 104.312 172.908 107.432 171.339C110.554 169.769 113.936 168.873 118.075 168.373L118.083 168.372L124.281 167.713L124.421 123.349L124.427 114.425C124.459 94.8721 124.666 83.9741 125.896 77.2598C126.604 73.4021 127.656 70.8729 129.24 68.8643C130.618 67.1178 132.377 65.7939 134.567 64.332L135.533 63.6953L141.328 59.8789L141.451 59.7979L141.599 59.7969L174.821 59.5137H174.825C184.012 59.5137 192.952 59.4437 199.984 59.373C206.993 59.3026 212.116 59.2318 213.689 59.2314L218.474 59.1045L217.594 54.4521V54.4512C214.94 40.3439 204.167 26.7547 189.873 19.748C182.269 16.0165 176.544 14.1048 169.944 13.8262ZM222.468 260.13C197.582 260.13 183.81 260.201 176.102 260.536C172.241 260.704 169.935 260.937 168.521 261.251C167.115 261.564 166.703 261.933 166.489 262.29L166.482 262.301L166.477 262.311C165.947 263.105 165.757 263.737 165.799 264.312C165.841 264.891 166.126 265.5 166.728 266.236C167.041 266.6 167.612 266.958 169.148 267.25C170.69 267.543 173.114 267.754 177.034 267.896C184.867 268.178 198.568 268.178 222.888 268.036L276.961 267.615V260.13H222.468ZM211.645 234.861C211.01 237.613 210.445 240.258 210.04 242.303C209.837 243.325 209.675 244.195 209.563 244.852C209.466 245.425 209.414 245.802 209.4 245.98C209.407 245.985 209.413 245.991 209.421 245.997C209.52 246.065 209.703 246.15 209.998 246.24C210.582 246.419 211.477 246.578 212.679 246.71C215.073 246.972 218.587 247.113 223.033 247.113C226.913 247.113 230.435 247.008 232.982 246.832C234.258 246.744 235.278 246.639 235.973 246.523C236.273 246.473 236.496 246.423 236.647 246.377C236.622 246.169 236.576 245.849 236.501 245.419C236.387 244.763 236.22 243.894 236.009 242.873C235.586 240.83 234.987 238.187 234.282 235.438L234.279 235.428L231.966 225.494H213.816L211.645 234.861ZM140.569 75.8896L137.297 79.707V141.727C137.297 161.658 137.438 177.452 137.686 188.474C137.809 193.985 137.959 198.299 138.131 201.339C138.217 202.86 138.308 204.056 138.403 204.921C138.451 205.354 138.498 205.697 138.546 205.954C138.596 206.226 138.639 206.354 138.657 206.392C139.572 208.114 140.238 209.286 141.902 210.183C143.614 211.105 146.42 211.755 151.683 212.196C162.188 213.078 182.162 213.113 221.901 213.184C249.327 213.184 268.196 213.078 280.542 212.813C286.716 212.681 291.252 212.509 294.41 212.291C295.989 212.182 297.217 212.062 298.128 211.931C299.058 211.797 299.606 211.659 299.866 211.536L299.87 211.534C301.786 210.647 303.101 209.989 304.101 208.504C305.115 206.996 305.84 204.578 306.333 200.076C307.319 191.081 307.355 174.12 307.355 140.454V78.6104L303.841 75.3662L300.309 72.1064H143.812L140.569 75.8896Z" fill="white" stroke="white"/>
<path d="M234.858 93.7617C245.255 89.4893 253.9 89.1656 261.285 93.0713H261.286C268.143 96.5358 272.203 102.15 273.359 109.468C274.511 116.757 272.776 125.694 268.161 135.849C264.221 144.714 262.543 150.6 261.7 159.444L261.699 159.448C260.706 169.029 258.537 176.57 255.23 181.908C251.914 187.262 247.444 190.406 241.899 191.136L241.898 191.135C238.079 191.648 234.583 190.579 231.636 188.126C228.698 185.681 226.323 181.879 224.678 176.943V176.942C224.007 175.002 223.453 173.589 222.964 172.674C222.718 172.214 222.505 171.912 222.324 171.734C222.144 171.558 222.052 171.557 222.028 171.559C221.992 171.561 221.88 171.591 221.688 171.812C221.501 172.028 221.289 172.37 221.051 172.866C220.575 173.856 220.045 175.346 219.409 177.36L219.406 177.367L219.404 177.374C218.889 178.846 217.873 180.689 216.658 182.458C215.442 184.229 214.002 185.959 212.621 187.195L212.614 187.201C209.444 189.939 206.159 191.417 202.871 191.546C199.578 191.675 196.35 190.449 193.307 187.913C187.21 182.832 183.236 172.196 181.537 157.191C180.551 148.601 178.723 141.017 176.062 134.854V134.854C172.446 126.558 170.681 119.907 170.825 114.128C170.97 108.326 173.037 103.449 176.985 98.7109L176.987 98.709C180.868 94.1098 185.177 91.4534 190.551 90.6729C195.899 89.896 202.245 90.9851 210.19 93.752C216.498 95.949 220.021 97.0117 223.279 97.0117C226.524 97.0117 229.547 95.9577 234.857 93.7627L234.858 93.7617ZM208.143 106.139C201.011 103.315 195.964 102.199 192.293 102.794C190.476 103.088 188.995 103.803 187.755 104.949C186.509 106.101 185.483 107.71 184.617 109.823L184.615 109.828C182.444 114.985 183.481 121.448 188.709 132.893L188.935 133.396C191.094 138.305 192.542 144.719 193.507 152.717L193.699 154.395L193.7 154.4C194.688 164.633 196.695 172.138 199.072 176.049C200.271 178.02 201.479 178.941 202.581 179.019C203.657 179.094 204.898 178.376 206.208 176.38C207.304 174.598 208.843 170.692 209.685 167.605C210.544 164.454 212.541 159.744 214.123 157.156C215.324 155.178 216.299 153.908 217.499 153.22C218.72 152.519 220.093 152.465 221.951 152.679C224.856 152.977 227.169 154.256 229.26 156.971C231.327 159.654 233.185 163.749 235.237 169.692C236.222 172.507 237.202 174.811 238.102 176.438C238.552 177.252 238.973 177.88 239.355 178.315C239.746 178.759 240.04 178.939 240.229 178.979C240.545 179.038 240.923 178.96 241.372 178.68C241.824 178.397 242.315 177.93 242.829 177.279C243.858 175.979 244.915 174.029 245.896 171.646C247.855 166.888 249.468 160.506 249.959 154.408L249.96 154.403C250.672 146.566 252.244 140.715 256.082 132.328C259.398 124.99 261.132 119.477 261.356 115.228C261.579 111.017 260.322 108.064 257.627 105.773H257.626C255.291 103.782 252.994 102.779 250.286 102.712C247.554 102.644 244.349 103.527 240.204 105.424C229.473 110.431 219.151 110.571 208.143 106.14V106.139Z" fill="white" stroke="white"/>
</svg>
