<svg width="317" height="283" viewBox="0 0 317 283" fill="none" xmlns="http://www.w3.org/2000/svg">
<path d="M62.6143 0.879883C69.2549 0.597304 73.0831 0.523487 77.167 1.15039C81.2432 1.77613 85.5591 3.09811 93.1846 5.56934H93.1875C100.474 7.9745 104.75 9.26971 108.399 9.88086C112.032 10.4892 115.059 10.4229 119.854 10.0703L119.855 10.0693C125.743 9.64879 136.589 7.39731 144.479 4.86133L144.481 4.86035C150.772 2.88116 154.73 1.77388 158.609 1.21973C162.006 0.734507 165.328 0.675642 170.085 0.810547L172.217 0.879883C177.873 1.092 181.621 1.37548 184.792 2.02051C187.976 2.66806 190.562 3.6761 193.906 5.3125L193.91 5.31445C198.056 7.38734 203.39 11.0887 208.018 14.8828C210.334 16.7818 212.481 18.711 214.222 20.4805C215.846 22.1314 217.14 23.6682 217.878 24.9258L218.019 25.1738L218.022 25.1816C219.974 28.935 218.507 33.5511 214.621 34.7949L214.617 34.7959C213.302 35.2068 211.982 34.9682 210.294 33.8926C208.63 32.8323 206.546 30.9193 203.648 27.8809C195.996 20.0183 188.238 15.3828 179.298 13.6924C170.346 11.9998 160.152 13.2488 147.611 17.2646L147.609 17.2656C136.829 20.67 129.999 21.9507 119.068 22.377C112.289 22.73 108.492 22.8405 104.581 22.2305C100.677 21.6215 96.6737 20.2971 89.4756 17.8271L89.4736 17.8262C82.7557 15.4926 78.6542 14.1978 75.0391 13.5342C71.4372 12.873 68.3011 12.8345 63.5078 13.0459L63.5088 13.0469C43.9104 14.0269 26.117 26.2087 17.4268 44.8506L17.4238 44.8555C15.6648 48.5142 14.736 50.829 14.2344 54.2363C13.7284 57.6737 13.6563 62.2281 13.6562 70.3682C13.727 79.7022 13.7987 84.5318 15.0596 90.6787C16.3245 96.8449 18.7865 104.339 23.668 118.983C29.3434 136.01 30.7602 145.391 32.7402 177.214V177.216C34.0112 198.893 36.7996 216.947 41.0615 231.336C45.3246 245.728 51.0524 256.419 58.1787 263.406L58.7129 263.915C61.3626 266.376 63.6826 267.594 65.5801 267.7C66.5761 267.756 67.4672 267.507 68.2578 266.953C69.0555 266.394 69.7754 265.507 70.3857 264.252L70.3887 264.247C73.0287 258.967 73.588 256.233 76.2773 235.144V235.143C79.9583 206.686 85.0672 192.854 96.7588 179.879L96.7607 179.877C99.6289 176.722 103.209 174.001 106.88 172.05C110.545 170.101 114.334 168.901 117.618 168.828H117.629L117.94 168.832C121.181 168.913 125.093 170.245 128.845 172.319C132.483 174.331 136.018 177.069 138.696 180.128L139.221 180.743L139.225 180.749C149.063 193.012 153.038 204.429 157.283 232.871V232.872C158.839 243.336 160.813 254.183 161.651 257.12C162.482 259.959 163.902 262.658 165.469 264.638C166.252 265.628 167.062 266.425 167.84 266.971C168.624 267.52 169.337 267.788 169.937 267.788C170.613 267.788 171.517 267.472 172.606 266.812C173.684 266.158 174.893 265.198 176.166 263.985C178.712 261.561 181.479 258.166 183.935 254.307L183.938 254.301C185.294 252.232 186.759 250.338 188.016 248.955C188.643 248.265 189.227 247.692 189.728 247.288C189.977 247.086 190.217 246.917 190.438 246.797C190.647 246.683 190.893 246.582 191.143 246.582C193.178 246.582 194.813 246.981 195.987 247.807C197.18 248.646 197.84 249.888 197.984 251.437C198.127 252.966 197.769 254.794 196.956 256.867C196.142 258.945 194.857 261.3 193.112 263.899L193.113 263.9C186.854 273.289 179.819 278.652 172.408 279.669H172.404C168.516 280.173 165.098 279.781 162.1 278.446C159.101 277.111 156.558 274.851 154.396 271.68L154.393 271.674C149.66 264.503 148.236 259.592 144.844 237.262V237.26C143.288 226.795 141.03 214.672 139.77 210.47L139.769 210.465C137.376 202.231 134.374 195.767 131.033 191.124C127.69 186.478 124.032 183.689 120.331 182.729C116.649 181.775 112.844 182.611 109.137 185.379C105.417 188.156 101.803 192.876 98.5713 199.655L98.5693 199.659C93.6601 209.758 90.84 221.986 87.7305 246.438C85.9607 260.455 82.6952 270.334 77.8955 275.964C75.4848 278.791 72.6788 280.556 69.4834 281.218C66.2936 281.879 62.7646 281.431 58.9189 279.922L58.9141 279.92C56.1941 278.817 52.3497 275.674 48.6348 271.853C44.9041 268.015 41.2357 263.424 38.877 259.35L38.876 259.348C33.8913 250.66 27.0913 230.669 23.9756 215.516L23.9746 215.507C22.838 209.397 20.8567 190.994 19.7256 174.452C17.6067 143.941 15.4921 132.543 8.58887 114.229L8.58789 114.228C4.39857 103.08 1.77524 90.1318 0.888672 77.8975C0.00266276 65.6705 0.848019 54.1102 3.63379 45.7529L3.63477 45.752C9.61505 27.9536 21.5823 14.2767 38.9512 6.01855L40.4336 5.31152C43.7668 3.74576 46.2763 2.75573 49.2041 2.11035C52.5397 1.3751 56.397 1.09289 62.6143 0.880859V0.879883Z" fill="white" stroke="white"/>
<path d="M220.026 43.582C221.585 43.2705 223.288 43.5608 225.703 44.6602C228.111 45.7565 231.286 47.6853 235.81 50.7246C256.565 64.5158 271.599 70.09 293.639 71.9609L295.794 72.1309L295.8 72.1318C305.815 72.9782 309.091 73.6852 312.342 76.4922L312.345 76.4941C314.055 77.9902 315.076 79.0311 315.575 81.0264C316.055 82.9461 316.049 85.7474 315.908 90.7393V90.7402C314.207 146.314 284.161 205.817 237.273 246.188C234.163 248.875 231.627 250.922 229.365 252.314C227.098 253.71 225.074 254.469 222.987 254.544C220.901 254.619 218.812 254.008 216.42 252.774C214.034 251.544 211.312 249.676 207.954 247.202V247.203C184.846 230.333 161.609 202.844 148.567 176.903V176.902C137.225 154.501 128.16 119.798 126.885 93.7188L126.886 93.7178C126.639 89.2382 126.495 85.7859 126.703 83.1123C126.912 80.4361 127.478 78.4598 128.717 76.9902C129.956 75.5204 131.804 74.6328 134.4 73.9844C136.995 73.3364 140.413 72.91 144.859 72.416L144.863 72.415C157.78 71.074 167.53 69.2768 176.423 66.2891C185.312 63.3025 193.367 59.1187 202.886 52.9844C206.572 50.574 210.33 48.3405 213.417 46.6553C214.96 45.8129 216.339 45.1058 217.46 44.5811C218.566 44.0632 219.462 43.7034 220.02 43.584L220.026 43.582ZM212.348 62.0156L212.344 62.0186C192.205 75.4917 177.003 81.1738 153.173 84.0107L153.174 84.0117L139.487 85.6533L139.76 96.3672C140.042 102.412 141.873 114.812 143.848 123.839L144.352 126.058C155.083 172.436 175.853 205.786 211.244 233.683L211.245 233.684C214.28 236.083 217.172 238.27 219.357 239.855C220.45 240.649 221.363 241.29 222.026 241.73C222.359 241.951 222.623 242.118 222.813 242.229C222.858 242.254 222.898 242.273 222.931 242.291C222.995 242.247 223.079 242.188 223.182 242.107C223.453 241.895 223.829 241.575 224.3 241.155C225.24 240.318 226.538 239.103 228.101 237.603C231.224 234.603 235.392 230.471 239.843 225.949C262.43 202.939 271.586 190.257 283.858 165.57C294.86 143.425 303.174 112.118 303.174 92.8457V85.3818L292.033 84.2959V84.2949C268.763 82.3074 249.313 75.2093 230.158 61.8721V61.8711L221.395 55.8467L212.348 62.0156Z" fill="white" stroke="white"/>
</svg>
