<svg width="225" height="283" viewBox="0 0 225 283" fill="none" xmlns="http://www.w3.org/2000/svg">
<path d="M46.3369 1.28223C55.6368 -0.433856 64.6333 0.580976 83.8633 5.24707L83.8652 5.24805C100.453 9.3246 116.066 9.05042 139.063 4.39453L139.07 4.39355C149.53 2.41464 162.994 0.570776 169.268 0.569336V0.568359C174.218 0.497636 177.412 0.601669 180.422 1.23242C183.434 1.86371 186.235 3.01685 190.41 4.99805H190.411C221.259 19.565 232.14 56.0768 218.238 97.0752L218.239 97.0762C213.702 110.618 208.086 120.804 201.104 127.91C194.113 135.027 185.773 139.034 175.839 140.249L175.829 140.251V140.25L169.301 140.916L168.499 147.868V147.873C168.002 151.849 167.256 155.899 166.384 159.315C165.523 162.69 164.521 165.514 163.479 167.017C163.278 167.394 162.934 167.708 162.537 167.964C162.12 168.233 161.608 168.465 161.044 168.659C159.916 169.047 158.527 169.301 157.146 169.374C155.927 169.446 155.075 169.498 154.443 169.644C153.839 169.783 153.507 169.992 153.273 170.339C153.016 170.721 152.835 171.331 152.702 172.378C152.57 173.414 152.492 174.798 152.386 176.679V176.68L151.991 183.502H157.117C159.305 183.502 160.85 183.639 161.944 184.108C163.102 184.605 163.713 185.45 164.098 186.681H164.097C164.78 188.811 164.369 190.769 163.069 192.187C161.783 193.59 159.688 194.398 157.117 194.398C155.865 194.398 154.992 194.419 154.345 194.578C153.741 194.727 153.366 194.988 153.081 195.488C152.771 196.032 152.554 196.883 152.385 198.254C152.217 199.613 152.103 201.416 151.961 203.823V203.832C151.819 205.708 151.723 207.115 151.71 208.181C151.697 209.259 151.771 209.925 151.931 210.353C152.072 210.732 152.28 210.926 152.634 211.061C153.036 211.214 153.605 211.281 154.465 211.353C156.447 211.354 158.712 211.494 159.729 211.639C160.54 211.698 161.196 212.176 161.679 212.811C162.169 213.455 162.515 214.301 162.712 215.19C163.099 216.94 162.944 219.067 161.888 220.367L161.876 220.381C161.304 221.035 160.332 221.602 159.253 222.005C158.163 222.411 156.902 222.672 155.703 222.672C154.486 222.672 153.642 222.693 153.006 222.855C152.413 223.007 152.02 223.277 151.695 223.811C151.348 224.382 151.073 225.268 150.807 226.679C150.543 228.079 150.297 229.935 149.979 232.411L149.052 239.957L153.204 240.335H153.203C155.112 240.477 156.472 240.764 157.389 241.415C158.351 242.099 158.738 243.118 158.887 244.454H158.886C159.252 246.761 158.696 248.753 157.377 250.169C156.059 251.584 154.039 252.36 151.604 252.36C149.867 252.36 148.997 252.574 148.263 253.381C147.873 253.81 147.501 254.431 147.09 255.346C146.68 256.259 146.244 257.434 145.714 258.952C140.103 276.056 121.725 285.194 102.433 280.621V280.62C98.0963 279.608 93.6437 277.125 89.835 273.87C86.0265 270.616 82.8299 266.564 81.0264 262.383C80.1828 260.485 79.523 259.47 78.6055 258.848C77.6789 258.219 76.4183 257.943 74.2256 257.73V257.729C73.0569 257.623 72.1112 257.506 71.3486 257.333C70.5854 257.16 69.9687 256.923 69.4824 256.553C68.4857 255.794 68.1922 254.598 67.9814 252.912C67.7682 251.206 67.8087 249.97 68.5127 248.988C69.1952 248.037 70.4356 247.429 72.2559 246.729L72.2588 246.728C73.2839 246.339 74.0358 246.024 74.5889 245.704C75.1352 245.388 75.4497 245.088 75.6377 244.745C75.8272 244.4 75.9204 243.954 75.9121 243.285C75.9038 242.612 75.794 241.761 75.6172 240.629L75.459 239.594C75.0931 237.124 74.7627 234.353 74.7627 233.199C74.7627 232.747 74.6982 232.425 74.5811 232.188C74.4694 231.961 74.2935 231.779 74.0059 231.628C73.3862 231.303 72.3032 231.154 70.457 231.154C65.7542 231.154 62.8051 229.004 62.416 226.362C62.0208 223.677 64.3279 221.061 68.958 220.266C70.0169 220.066 70.8544 219.683 71.501 219.117C72.148 218.551 72.6338 217.774 72.9473 216.743C73.5814 214.657 73.4971 211.578 72.6523 207.283L72.6504 207.274C72.2939 205.278 71.9565 204.272 71.3447 203.675C70.7399 203.084 69.7771 202.808 67.8564 202.595H67.8555C63.1926 202.154 60.657 199.552 60.6973 196.719C60.7376 193.892 63.339 191.293 68.0068 190.855H68.0078L72.1641 190.478L71.2324 182.223L71.1211 181.336C70.8463 179.288 70.473 177.395 70.0635 175.938C69.8288 175.104 69.5869 174.43 69.3525 173.957C69.2352 173.72 69.1278 173.55 69.0352 173.438C68.937 173.32 68.89 173.31 68.9053 173.314L68.8877 173.31L68.8691 173.303C67.1278 172.659 65.3992 171.225 63.7959 169.318C62.1864 167.404 60.6717 164.977 59.3682 162.29C56.764 156.921 54.9718 150.449 54.9717 144.843C54.9717 143.784 54.9444 142.994 54.8555 142.398C54.7663 141.801 54.6227 141.459 54.4385 141.245C54.2631 141.042 53.9981 140.893 53.5254 140.8C53.0417 140.704 52.3966 140.677 51.5127 140.677C45.0277 140.677 37.7601 138.088 31.1689 133.884C24.7797 129.808 18.9847 124.19 15.1172 117.86L14.749 117.245C9.83309 108.838 5.75433 96.4432 3.23926 83.9033C0.724586 71.3652 -0.240752 58.6129 1.11426 49.4844L1.11523 49.4795C5.10398 24.408 22.781 5.42236 46.3369 1.28223ZM131.083 253.861C130.12 253.905 128.896 254.019 127.344 254.195L127.343 254.194C123.216 254.762 113.593 255.47 106.12 256.034H106.119C102.309 256.316 98.8571 256.669 96.3623 257.021C95.1128 257.196 94.1149 257.371 93.4355 257.533C93.1547 257.6 92.9419 257.662 92.7939 257.716C92.8262 257.797 92.8684 257.896 92.9238 258.009C93.0724 258.312 93.2927 258.698 93.5703 259.141C93.986 259.803 94.5205 260.576 95.1152 261.363L95.7285 262.15L95.7324 262.155C101.086 269.019 110.041 271.275 120.651 268.343C123.219 267.597 126.608 265.228 129.376 262.513C130.754 261.161 131.956 259.744 132.811 258.433C133.677 257.102 134.139 255.95 134.139 255.111C134.139 254.691 134.071 254.46 133.964 254.314C133.863 254.178 133.663 254.034 133.198 253.941C132.729 253.847 132.052 253.818 131.083 253.861ZM136.464 225.843C134.931 225.524 132.333 225.585 128.017 225.944C123.721 226.302 117.803 226.944 109.667 227.758L109.668 227.759L87.0732 230.115V233.482C87.0733 236.624 87.4924 239.761 88.1162 242.101C88.429 243.274 88.787 244.221 89.1543 244.864C89.3383 245.186 89.5123 245.41 89.666 245.547C89.8195 245.684 89.918 245.705 89.9658 245.705C90.1512 245.705 90.9612 245.647 92.3076 245.535C93.638 245.425 95.4615 245.266 97.6436 245.071C102.008 244.683 107.803 244.152 113.953 243.587C120.101 243.022 125.753 242.456 129.903 242.015C131.978 241.794 133.677 241.604 134.873 241.461C135.471 241.389 135.942 241.33 136.271 241.284C136.356 241.272 136.431 241.259 136.495 241.249C136.521 241.125 136.552 240.963 136.587 240.767C136.668 240.307 136.769 239.671 136.884 238.904C137.113 237.371 137.395 235.325 137.678 233.136V233.135C137.837 231.915 138.022 230.83 138.15 229.938C138.282 229.027 138.356 228.307 138.321 227.729C138.287 227.161 138.148 226.785 137.9 226.514C137.647 226.236 137.219 226 136.464 225.843ZM130.835 197.366C125.616 197.507 113.046 198.214 102.879 199.202L102.873 199.203L84.9688 200.717L85.2334 208.002C85.3745 210.118 85.5516 212.232 85.7275 213.921C85.8155 214.766 85.9027 215.501 85.9854 216.075C86.0605 216.597 86.1286 216.954 86.1807 217.143C86.1879 217.147 86.1965 217.154 86.208 217.16C86.2841 217.2 86.4169 217.248 86.627 217.294C87.0456 217.385 87.6773 217.446 88.5537 217.469C90.301 217.514 92.9267 217.405 96.5547 217.132C103.806 216.585 115 215.385 131.046 213.477H131.047L139.109 212.535L139.512 204.898L139.907 197.233L130.835 197.366ZM82.832 174.672C82.8321 178.032 83.2514 182.795 83.6689 185.172L84.5615 189.253L92.0332 188.453L92.0381 188.452C96.424 188.028 107.596 187.038 116.93 186.331C126.239 185.626 135.32 184.916 137.184 184.916C137.896 184.916 138.349 184.876 138.67 184.742C138.943 184.628 139.158 184.429 139.331 183.968C139.515 183.476 139.636 182.727 139.706 181.568C139.776 180.419 139.794 178.913 139.794 176.934V168.951H82.832V174.672ZM67.9824 146.889L68.1025 147.668C68.7138 151.485 69.4439 154.163 70.3145 155.793C70.7774 156.66 71.2538 157.18 71.7246 157.439C72.1736 157.687 72.6686 157.724 73.2598 157.518C73.3922 157.47 73.583 157.44 73.7754 157.415C73.9912 157.387 74.2695 157.359 74.6035 157.333C75.2726 157.28 76.1853 157.229 77.3105 157.179C79.5625 157.079 82.6817 156.987 86.4385 156.907C93.9529 156.748 104.029 156.642 114.847 156.642H153.746L155.215 149.966C155.638 147.991 156.026 146.054 156.308 144.522C156.449 143.756 156.562 143.094 156.641 142.582C156.687 142.276 156.718 142.036 156.736 141.862C156.642 141.837 156.517 141.807 156.356 141.778C155.843 141.686 155.064 141.597 154.023 141.511C151.947 141.34 148.882 141.189 144.943 141.065C137.069 140.818 125.73 140.677 111.878 140.677H67.0762L67.9824 146.889ZM170.657 12.542C164.841 12.3848 157.932 13.5023 148.186 15.833L148.181 15.834C133.294 19.2365 128.45 19.8047 109.192 19.8047C90.2296 19.8047 85.6513 19.239 75.8311 16.3926L75.8262 16.3906C61.3215 12.0251 48.5929 11.9139 39.8408 15.8037C30.2041 20.1339 21.5248 28.9477 16.9072 39.0225L16.9053 39.0273C15.0718 42.9059 14.0699 45.4021 13.5342 48.4092C13.0632 51.053 12.9494 54.1085 12.9756 58.8594L12.9941 61.0039L13.0146 62.1738C13.3054 74.2913 15.9737 87.2502 19.9795 98.1768C22.0467 103.815 24.4665 108.902 27.0918 113.047C29.5565 116.938 32.1857 119.974 34.8525 121.865L35.3867 122.228L35.3916 122.231C37.6078 123.709 39.4011 124.801 41.8789 125.63C44.3652 126.462 47.5663 127.036 52.5947 127.433C62.6605 128.226 79.9169 128.296 113.15 128.366C144.188 128.366 160.184 128.332 169.2 127.943C173.708 127.749 176.447 127.468 178.438 127.065C180.414 126.665 181.665 126.144 183.205 125.443C194.035 120.303 201.469 109.448 207.816 89.1348V89.1328C209.988 82.2664 211.151 73.1995 211.292 64.4473C211.433 55.69 210.55 47.3106 208.669 41.8057C207.071 37.2209 203.791 32.1165 199.772 27.5889C195.754 23.0617 191.032 19.1501 186.581 16.9248L186.574 16.9209C181.185 14.1216 176.452 12.6986 170.657 12.542Z" fill="white" stroke="white"/>
</svg>
