<svg width="267" height="261" viewBox="0 0 267 261" fill="none" xmlns="http://www.w3.org/2000/svg">
<path d="M132.124 40.5068C139.624 40.4182 147.597 41.1612 153.177 42.8066H153.176C168.327 47.2378 180.008 57.8149 190.791 76.8262C193.024 80.7335 199.634 89.0369 205.429 95.5391L206.655 96.8867C232.431 125.363 258.558 164.519 263.417 170.779C266.03 174.145 266.033 177.818 264.838 180.703C263.661 183.544 261.272 185.719 258.983 186.002C258.549 186.056 258.107 185.865 257.711 185.611C257.299 185.347 256.849 184.958 256.374 184.478C255.421 183.514 254.303 182.123 253.091 180.461C250.664 177.132 247.814 172.648 245.082 168.143C242.349 163.635 239.726 159.094 237.753 155.647C236.765 153.922 235.942 152.475 235.347 151.438C235.049 150.919 234.81 150.506 234.637 150.215C234.55 150.069 234.482 149.957 234.433 149.879C234.417 149.855 234.404 149.835 234.394 149.819C234.293 149.818 234.123 149.841 233.871 149.908C233.368 150.043 232.661 150.32 231.795 150.723C230.07 151.524 227.79 152.786 225.396 154.265C220.709 157.388 213.909 161.072 210.351 162.638L210.338 162.643L210.326 162.647C208.3 163.416 206.834 164.206 205.937 164.921C205.487 165.279 205.206 165.598 205.06 165.861C204.921 166.11 204.923 166.271 204.959 166.377C204.961 166.381 204.964 166.386 204.968 166.393C204.979 166.413 204.993 166.44 205.013 166.475C205.052 166.543 205.105 166.635 205.173 166.748C205.308 166.974 205.497 167.281 205.733 167.659C206.206 168.415 206.866 169.451 207.662 170.69C209.255 173.17 211.394 176.46 213.687 179.949C218.273 186.932 223.463 194.698 226.105 198.361C227.465 200.246 227.748 201.857 226.904 203.011C226.109 204.098 224.479 204.507 222.72 204.476C219.152 204.411 214.268 202.524 211.721 198.943C206.838 192.081 186.524 161.149 173.781 131.416V131.415C170.107 122.936 166.573 114.952 163.836 108.895C162.467 105.865 161.298 103.319 160.409 101.434C159.521 99.5494 158.929 98.3623 158.698 97.9941C158.209 97.331 157.218 96.6391 155.761 96.0391C154.308 95.4407 152.444 94.9542 150.289 94.6758V94.6768C146.106 94.1719 139.72 91.8804 133.243 88.8545C126.755 85.8231 120.113 82.0248 115.411 78.4629L115.41 78.4619C111.548 75.5296 108.083 71.7781 105.579 68.0586C103.088 64.3572 101.5 60.6137 101.5 57.7061C101.5 55.0692 102.849 52.2365 105.012 49.6953C107.182 47.1454 110.211 44.8398 113.667 43.2559L113.669 43.2549C117.517 41.5125 124.641 40.5953 132.124 40.5068ZM181.227 94.6758C179.478 94.8857 177.727 95.2018 176.311 95.5166C175.017 95.804 174.051 96.0817 173.606 96.2656C173.599 96.3276 173.595 96.4221 173.604 96.5576C173.626 96.8994 173.717 97.4012 173.888 98.0752C174.228 99.4171 174.862 101.355 175.788 103.887C177.639 108.945 180.638 116.32 184.736 125.93L197.274 154.629L200.938 153.366L200.945 153.363L200.952 153.361C202.03 153.024 204.25 151.953 206.98 150.499C209.694 149.054 212.868 147.256 215.831 145.492C218.859 143.661 221.528 141.87 223.418 140.435C224.365 139.715 225.105 139.094 225.595 138.608C225.841 138.364 226.01 138.168 226.11 138.021C226.129 137.994 226.143 137.969 226.155 137.948C226.147 137.936 226.138 137.922 226.128 137.907C226.051 137.798 225.941 137.65 225.797 137.464C225.51 137.093 225.102 136.585 224.583 135.955C223.546 134.695 222.077 132.958 220.284 130.874C217.148 127.228 213.024 122.526 208.492 117.479L206.526 115.297L187.329 93.998L181.227 94.6758ZM140.795 52.6865C135.337 51.7769 129.42 51.8474 124.596 52.6514C122.183 53.0534 120.062 53.6356 118.415 54.3604C116.756 55.0907 115.652 55.933 115.165 56.8105L115.045 57.0645C114.514 58.3625 114.963 60.0979 116.479 62.2031C118.075 64.4206 120.753 66.8934 124.222 69.3877C131.153 74.3716 141.14 79.367 151.624 82.5332L155.777 83.7793C159.336 84.8385 161.263 85.3539 162.934 85.4824C165.14 85.6522 166.877 85.1483 171.453 84.2188L172.959 83.8975C174.433 83.5725 175.794 83.2427 176.887 82.9531C177.616 82.7599 178.22 82.5851 178.656 82.4434C178.875 82.3722 179.044 82.3116 179.163 82.2627C179.174 82.258 179.184 82.2523 179.194 82.248C179.181 82.1544 179.148 82.0153 179.08 81.8252C178.922 81.3826 178.624 80.7709 178.203 80.0234C177.365 78.5348 176.082 76.5809 174.594 74.5029C171.612 70.3397 167.857 65.7468 165.284 63.4521L165.283 63.4512C158.587 57.4529 152.464 54.795 140.795 52.6855V52.6865Z" fill="white" stroke="white"/>
<path d="M219.128 54.3203C219.128 59.8954 219.023 63.2954 218.662 65.4814C218.481 66.5802 218.23 67.4049 217.875 68.0576C217.515 68.7203 217.061 69.1815 216.516 69.5713L216.502 69.5811L216.487 69.5898C215.522 70.1837 214.618 70.5126 213.698 70.5127C212.777 70.5127 211.906 70.1823 211.007 69.584V69.585C209.863 68.8494 209.144 67.6436 208.618 65.5205C208.094 63.4069 207.739 60.2928 207.386 55.6309V55.6289C206.893 48.8017 205.875 43.6712 203.823 39.1162C201.773 34.5641 198.674 30.5506 193.966 25.9824C187.12 19.4162 179.584 15.7825 169.076 14.2412L169.066 14.2402C159.843 12.7031 152.576 13.5278 135.488 18.0469L135.487 18.0479C119.642 22.1813 106.327 22.037 87.2002 17.2529L85.3311 16.7754C76.0687 14.3714 70.2803 13.1116 65.3516 12.8145C60.4421 12.5185 56.3638 13.1766 50.5195 14.6553C37.1407 18.1585 26.9713 25.891 20.7695 36.4951C14.565 47.1039 12.3115 60.6231 14.8398 75.7246L15.1924 77.7021C17.0095 87.4759 19.753 95.8728 28.1006 117.471C30.508 123.56 31.8309 127.343 32.7939 132.782C33.6335 137.524 34.1993 143.523 34.9902 153.419L35.3447 157.906V157.907C36.4766 172.904 38.0292 188.703 38.8701 192.907L38.8721 192.916C40.7014 203.048 46.9071 221.522 51.127 229.962C53.2248 234.158 56.3787 238.61 59.4111 242.011C60.9272 243.711 62.4021 245.136 63.6885 246.132C64.3319 246.63 64.9187 247.013 65.4316 247.27C65.9517 247.529 66.359 247.64 66.6543 247.64C67.9326 247.64 68.8101 247.481 69.5244 246.901C70.2551 246.309 70.8999 245.208 71.5107 243.105C72.7326 238.899 73.7183 231.072 75.3467 216.559V216.557C77.8931 194.488 81.154 182.375 87.2979 172.802C94.2994 161.73 103.967 156.615 113.489 157.394C123.002 158.171 132.215 164.819 138.35 176.943L138.808 177.845C143.442 187.1 144.993 194.422 147.732 218.254C148.651 226.24 149.471 232.428 150.316 237.043C151.165 241.679 152.028 244.656 153.001 246.274C153.484 247.078 153.954 247.477 154.396 247.625C154.825 247.768 155.333 247.71 155.981 247.354C156.637 246.996 157.387 246.358 158.25 245.433C159.109 244.512 160.057 243.33 161.112 241.905C164.749 236.892 167.829 233.064 170.366 229.663C172.916 226.247 174.951 223.22 176.578 219.722C179.83 212.729 181.482 203.782 182.188 185.98L182.213 185.346L182.824 185.519C187.286 186.784 189.453 188.259 190.781 189.915C191.438 190.733 191.872 191.577 192.275 192.4C192.683 193.232 193.055 194.035 193.598 194.849L193.714 195.023L193.671 195.229C188.431 220.012 179.073 240.897 168.097 252.443L168.092 252.448C165.056 255.555 163 257.438 161.151 258.536C159.267 259.655 157.616 259.95 155.436 259.95C147.785 259.95 141.702 254.204 139.12 245.023V245.021C137.978 240.881 135.995 228.973 134.863 218.506V218.505C133.239 204.098 131.159 193.546 128.318 185.989C125.48 178.438 121.904 173.932 117.316 171.536H117.315C114.379 169.998 112.196 169.384 110.107 169.68C108.012 169.977 105.912 171.202 103.177 173.586L103.178 173.587C94.7043 181.119 91.394 190.197 87.9805 218.534L87.6494 221.337C86.3766 232.439 85.0656 240.32 83.4453 245.929C81.8257 251.535 79.8792 254.939 77.2871 257.013L77.2842 257.015C74.8353 258.944 71.2485 259.878 67.5752 259.896C63.8959 259.914 60.0548 259.014 57.0635 257.19V257.189C55.8028 256.446 54.1062 254.96 52.4072 253.226C50.6964 251.479 48.9488 249.446 47.5898 247.587L47.5889 247.586C32.6656 227.119 25.1605 200.998 23.0371 161.934L22.9141 159.984C21.5963 140.06 18.895 126.932 12.8965 112.617L12.8955 112.616C2.69798 88.1138 -0.73039 67.7933 2.4043 50.8369L2.63574 49.6396C7.73221 24.5772 27.4635 5.58934 52.7178 1.51953L53.7598 1.35449C64.5087 -0.259916 74.8652 0.951511 89.6943 5.20801L89.6992 5.20898C105.292 9.8445 117.779 9.85032 136.082 5.06348H136.084C142.097 3.50709 146.296 2.58071 150.503 2.11719C154.712 1.65349 158.913 1.65431 164.931 1.9375H164.93C171.284 2.14937 175.178 2.3969 178.514 3.11426C181.863 3.83456 184.629 5.02415 188.737 7.07812L189.738 7.58691C200.052 12.9756 209.456 22.5524 215.252 33.7275L215.835 34.8428C217.121 37.3724 217.903 39.4406 218.378 42.0371C218.917 44.9832 219.057 48.5946 219.128 54.3145V54.3203Z" fill="white" stroke="white"/>
<path d="M39.9585 68.7781L39.1674 64.3123L39.0416 63.6279C38.9307 62.9715 38.8643 62.3991 38.8516 61.8984C38.8346 61.2306 38.9125 60.6573 39.1356 60.1672C39.5956 59.157 40.581 58.6868 41.9045 58.2926L41.9056 58.2935C45.4206 57.213 52.4027 56.2147 58.6661 55.647C61.8063 55.3624 64.785 55.1842 67.0792 55.1588C68.2248 55.1462 69.2113 55.1709 69.9658 55.2422C70.3422 55.2777 70.6733 55.3257 70.9431 55.3902C71.1932 55.45 71.4639 55.5404 71.6546 55.7021C72.8577 56.7227 73.4409 58.32 73.4564 59.8988C73.4718 61.4766 72.9218 63.1127 71.7558 64.2342C71.5617 64.4313 71.278 64.5998 70.9622 64.7491C70.6325 64.9051 70.2246 65.0596 69.7529 65.212C68.8088 65.517 67.5728 65.825 66.1161 66.1231C63.2008 66.7197 59.3643 67.2826 55.1312 67.7014L55.1313 67.7024L40.5017 69.1882L40.0391 69.235L39.9585 68.7781Z" fill="white" stroke="white"/>
<path d="M63.8635 114.024C62.5531 114.676 61.4265 114.945 60.3755 114.827C59.3207 114.708 58.4138 114.206 57.5312 113.458C56.537 112.614 55.8405 111.708 55.5959 110.641C55.3498 109.566 55.5821 108.42 56.2521 107.142C57.574 104.62 60.7186 101.366 65.9954 96.687C72.1827 91.1627 75.4706 88.2626 77.637 86.9759C78.7376 86.3222 79.6123 86.0438 80.4721 86.0865C81.3071 86.128 82.0606 86.4723 82.8977 86.8916L83.1647 87.0167C84.4754 87.6484 85.429 88.4382 85.8914 89.4716C86.3912 90.5887 86.2655 91.8701 85.6263 93.306C84.9893 94.7369 83.8178 96.3822 82.1231 98.2902C80.4242 100.203 78.1774 102.403 75.3649 104.945C69.9659 109.846 66.4585 112.734 63.8635 114.024Z" fill="white" stroke="white"/>
<path d="M106.321 139.382C104.662 139.734 103.258 139.791 102.179 139.283C101.055 138.754 100.415 137.68 100.135 136.107C99.8579 134.546 99.9171 132.406 100.255 129.588C100.594 126.761 101.22 123.211 102.101 118.809L102.101 118.805C103.017 114.4 103.95 110.205 104.716 106.981C105.098 105.369 105.44 103.998 105.716 102.963C105.986 101.95 106.207 101.209 106.35 100.902L106.353 100.897C107.069 99.4133 108.687 98.714 110.338 98.6735C111.998 98.6328 113.816 99.2462 115.085 100.538C115.771 101.236 116.183 102.283 116.381 103.658C116.58 105.039 116.571 106.808 116.368 109.014C115.962 113.428 114.765 119.689 112.776 128.294C111.796 132.677 111.102 135.262 110.204 136.829C109.743 137.634 109.218 138.191 108.562 138.59C107.917 138.983 107.175 139.204 106.321 139.383L106.321 139.382Z" fill="white" stroke="white"/>
</svg>
