<svg width="279" height="287" viewBox="0 0 279 287" fill="none" xmlns="http://www.w3.org/2000/svg">
<path d="M235.355 17.0078C238.34 15.8431 242.373 15.3827 246.405 15.5254C250.438 15.6681 254.527 16.4164 257.637 17.7168C263.694 20.1686 271.12 26.8967 275.403 33.749C277.241 36.69 278.2 41.5698 278.324 46.4424C278.449 51.3196 277.742 56.327 276.134 59.543L276.128 59.5547L276.122 59.5645C276.019 59.7471 275.819 60.0159 275.556 60.3428C275.284 60.6792 274.923 61.105 274.479 61.6143C273.591 62.6337 272.36 63.9975 270.828 65.6621C267.764 68.9919 263.485 73.536 258.307 78.9619C249.244 88.4578 237.421 100.66 224.52 113.791L218.929 119.471L164.218 174.885L164.079 186.136C164.079 193.032 163.296 198.743 161.242 204.654C159.191 210.559 155.878 216.641 150.851 224.288L150.852 224.289C142.197 237.626 131.415 249.4 118.226 259.753L118.225 259.752C94.2158 278.929 67.9383 286.437 25.0361 286.438C16.6271 286.438 11.1631 286.332 7.63965 286.029C5.87934 285.878 4.5786 285.676 3.62695 285.404C2.69283 285.138 2.03535 284.787 1.62207 284.294C0.854627 283.45 0.460916 282.621 0.50293 281.57C0.542803 280.574 0.976381 279.43 1.68262 277.947L1.69043 277.931L1.69922 277.914C1.79539 277.746 2.00164 277.481 2.27246 277.155C2.55386 276.817 2.93456 276.378 3.40723 275.847C4.35325 274.783 5.67739 273.337 7.33594 271.555C10.6539 267.989 15.3171 263.07 20.9814 257.158C32.3105 245.334 47.6506 229.535 64.2627 212.64L64.2637 212.639L124.567 151.491L119.537 146.329L114.165 140.815L113.888 140.53L114.104 140.195L118.486 133.409L118.487 133.408C119.241 132.251 121.562 129.593 125.006 125.866C128.466 122.122 133.095 117.262 138.5 111.677C149.311 100.506 163.234 86.428 177.134 72.5723C191.034 58.7167 204.913 45.0806 215.636 34.793C220.996 29.6499 225.571 25.3413 228.966 22.2598C230.663 20.7196 232.069 19.4822 233.133 18.5996C233.664 18.1587 234.116 17.8018 234.478 17.5391C234.817 17.2928 235.123 17.0959 235.355 17.0088V17.0078ZM133.755 162.141C133.585 162.283 133.34 162.5 133.023 162.79C132.391 163.368 131.487 164.223 130.342 165.321C128.052 167.518 124.81 170.684 120.874 174.558C113.003 182.305 102.365 192.88 91.0557 204.189C68.4362 226.809 43.1343 252.357 31.8994 264.087L23.6602 272.714H37.1934C46.2076 272.714 57.0622 271.586 65.0908 270.037C90.4111 264.689 114.343 249.49 132.089 227.52C140.053 217.511 145.639 208.052 148.654 199.708C151.673 191.355 152.094 184.18 149.828 178.687V178.686C149.433 177.768 148.374 176.266 146.922 174.491C145.479 172.728 143.686 170.742 141.874 168.877C140.061 167.011 138.236 165.275 136.729 164.008C135.974 163.374 135.308 162.865 134.77 162.518C134.5 162.344 134.272 162.217 134.087 162.135C133.992 162.093 133.919 162.067 133.864 162.052C133.834 162.076 133.797 162.105 133.755 162.141ZM257.253 32.5439C251.02 27.0069 243.93 26.1099 238.231 30.1797L238.218 30.1895C237.966 30.3573 237.345 30.8925 236.365 31.7959C235.4 32.6858 234.117 33.9029 232.562 35.4023C229.453 38.401 225.261 42.5221 220.35 47.3955C210.528 57.1419 197.836 69.8951 185.193 82.6973C172.55 95.4993 159.956 108.349 150.329 118.29C145.515 123.261 141.444 127.503 138.48 130.647C136.998 132.22 135.795 133.516 134.914 134.491C134.02 135.48 133.487 136.107 133.317 136.361L133.315 136.365C132.695 137.278 132.318 137.848 132.207 138.425C132.106 138.948 132.218 139.553 132.846 140.532C133.48 141.522 134.594 142.822 136.386 144.706C137.279 145.645 138.333 146.723 139.571 147.973L143.858 152.271L143.86 152.273L156.52 165.07L159.417 162.301L159.423 162.295C160.325 161.463 161.118 160.6 161.681 159.866C161.963 159.499 162.18 159.172 162.324 158.905C162.479 158.618 162.514 158.465 162.514 158.421C162.514 158.281 162.571 158.171 162.584 158.146C162.608 158.097 162.638 158.051 162.665 158.01C162.721 157.926 162.798 157.826 162.889 157.714C163.072 157.487 163.338 157.179 163.681 156.797C164.366 156.032 165.374 154.95 166.667 153.59C169.254 150.868 172.994 147.018 177.607 142.325C186.834 132.94 199.559 120.179 213.556 106.323C235.895 84.1257 248.609 71.3756 255.846 63.5742C259.465 59.6721 261.7 57.024 263.08 55.0605C264.456 53.1031 264.962 51.8551 265.157 50.751C265.708 47.3735 265.395 44.3632 264.13 41.4404C262.86 38.5061 260.616 35.6279 257.253 32.5449V32.5439Z" fill="white" stroke="white"/>
<path d="M230.952 125.002C232.629 124.744 234.099 124.991 235.351 125.722C236.603 126.453 237.592 127.641 238.355 129.181C239.874 132.245 240.555 136.817 240.598 142.404C240.683 153.601 238.202 169.147 234.359 185.613C230.514 202.088 225.297 219.519 219.891 234.495C214.49 249.455 208.883 262.013 204.249 268.716L204.25 268.717C200.4 274.349 195.995 278.479 191.538 280.789C187.077 283.101 182.538 283.598 178.482 281.902L178.106 281.742C177.269 281.374 176.694 281.04 176.19 280.623C175.627 280.157 175.168 279.599 174.536 278.851C173.265 277.345 171.126 274.855 165.622 270.085C160.088 265.289 154.962 260.376 151.463 256.388C149.716 254.397 148.356 252.616 147.557 251.184C147.158 250.47 146.882 249.812 146.779 249.237C146.677 248.663 146.736 248.086 147.135 247.659L147.182 247.608L147.24 247.572L147.5 248C147.241 247.573 147.241 247.572 147.242 247.571L147.244 247.57C147.245 247.57 147.247 247.568 147.248 247.567C147.251 247.566 147.255 247.565 147.259 247.562C147.266 247.558 147.274 247.553 147.284 247.548C147.304 247.538 147.329 247.526 147.359 247.513C147.42 247.486 147.504 247.454 147.611 247.423C147.827 247.36 148.14 247.299 148.569 247.279C149.428 247.24 150.755 247.366 152.723 247.976C156.652 249.193 163.189 252.359 173.738 260.115C180.616 265.172 184.311 267.913 186.168 269.31C186.741 268.994 187.389 268.521 188.098 267.897C189.522 266.644 191.151 264.821 192.872 262.564C196.312 258.054 200.076 251.865 203.244 245.177C210.281 230.259 214.603 211.421 217.003 191.938L217.008 191.907L217.016 191.875C218.129 187.546 218.845 181.241 219.463 174.183C220.078 167.146 220.596 159.357 221.314 152.138C222.033 144.918 222.958 138.205 224.402 133.289C225.124 130.834 225.986 128.786 227.043 127.344C228.094 125.909 229.383 125.02 230.952 125.002Z" fill="white" stroke="white"/>
<path d="M64.6494 1.93262C75.672 0.166895 88.8639 1.74273 106.975 6.12891H106.976C116.522 8.46252 122.258 9.76344 126.928 10.3955C131.582 11.0254 135.186 10.9919 140.47 10.6396H140.472C147.213 10.2183 157.634 8.24746 164.391 6.27734C182.11 0.890715 196.788 0.0146291 208.378 3.87793L208.382 3.87988C213.246 5.54767 216.078 5.86694 220.241 8.45117L220.571 8.65625L220.454 9.02734C220.221 9.76523 219.585 10.9671 218.754 12.2764C217.915 13.5987 216.85 15.0737 215.729 16.3652C214.618 17.6472 213.418 18.7879 212.306 19.3975C211.749 19.7023 211.17 19.8998 210.607 19.876C210.052 19.8524 209.561 19.612 209.174 19.1523C203.33 15.6847 198.627 14.2149 192.577 14.3379C186.461 14.4622 178.955 16.2132 167.492 19.2559H167.49C154.748 22.583 145.297 24.221 135.408 24.1143C125.524 24.0076 115.229 22.1585 100.798 18.5508V18.5498C88.4965 15.5099 80.5976 13.9705 74.1787 13.918C67.7897 13.8657 62.8455 15.2883 56.4561 18.2373H56.4551C35.8023 27.7264 25.3742 52.0579 29.3154 81.8994L29.3164 81.9023C30.7212 93.0002 34.2322 103.834 42.5703 123.902H42.5713C47.4093 135.571 50.5228 154.433 50.5254 172.844V172.854C50.5257 172.862 50.5266 172.873 50.5273 172.888C50.5288 172.917 50.5312 172.961 50.5342 173.02C50.5401 173.136 50.5489 173.31 50.5615 173.534C50.5867 173.983 50.6262 174.639 50.6816 175.464C50.7925 177.113 50.9684 179.437 51.2305 182.135C51.755 187.535 52.6213 194.419 53.9873 200.389C54.6952 203.482 54.3273 205.959 53.2959 207.777C52.2649 209.595 50.5966 210.706 48.8018 211.107C45.2148 211.909 41.0877 209.867 40.4814 205.021C39.3502 195.977 38.0764 185.067 37.6514 173.169L37.4609 168.614C37.0031 158.473 36.4241 151.624 35.2559 145.553C34.0058 139.056 32.078 133.432 28.875 125.6L28.2168 124.003C17.3074 97.7918 13.7477 76.4936 16.874 54.751C19.0095 39.3786 24.7139 27.9651 35.4014 17.7051L35.4033 17.7021C44.7834 8.81956 53.6014 3.70245 64.6494 1.93262Z" fill="white" stroke="white"/>
<path d="M129.948 159.088C132.649 158.577 136.113 158.763 139.491 159.46C142.872 160.158 146.221 161.377 148.691 162.976L148.701 162.982L152.235 165.386L152.664 165.677L152.357 166.095L149.247 170.336C148.047 172.029 147.074 173.139 146.048 173.711C144.971 174.312 143.901 174.289 142.624 173.913L142.615 173.91L142.607 173.907C137.927 172.347 135.191 171.764 132.96 172.26C130.749 172.751 128.936 174.325 126.175 177.44C123.392 180.785 119.324 188.074 117.221 193.684C114.229 201.661 111.648 205.823 105.938 211.533L105.934 211.537C102.978 214.422 101.064 216.163 99.877 216.904C99.5761 217.092 99.2942 217.234 99.0352 217.309C98.7782 217.383 98.4845 217.407 98.2109 217.275C97.9283 217.139 97.7752 216.89 97.6953 216.646C97.6173 216.409 97.5918 216.132 97.5918 215.845C97.5918 212.584 98.7779 207.08 100.546 201.192C102.319 195.289 104.696 188.937 107.113 183.96C110.032 177.908 114.054 172.037 118.168 167.513C120.225 165.251 122.313 163.317 124.307 161.865C126.293 160.418 128.218 159.426 129.945 159.088H129.948Z" fill="white" stroke="white"/>
</svg>
