<svg width="266" height="281" viewBox="0 0 266 281" fill="none" xmlns="http://www.w3.org/2000/svg">
<path d="M70.9561 1.25195C82.3862 -0.238817 91.4198 0.865955 110.754 5.93945L112.64 6.42676C121.91 8.78298 128.81 9.94979 135.541 9.91699C142.718 9.88198 149.735 8.48268 159.258 5.66113L159.259 5.66016C177.978 0.129603 196.329 -0.457384 209.47 4.25488L210.343 4.56934C228.628 11.3133 244.04 27.1939 250.351 45.7041L250.352 45.7051C251.701 49.6811 252.491 52.5843 252.867 56.4014C253.242 60.2033 253.205 64.9 252.922 72.4619L252.373 89.1904H255.25C257.94 89.1905 260.242 89.8444 261.887 91.0352C263.543 92.2346 264.515 93.9702 264.515 96.0518C264.515 98.189 263.591 99.9042 261.996 100.974C260.417 102.033 258.232 102.427 255.742 102.061L255.735 102.06L255.729 102.058C253.434 101.653 251.487 102.063 249.986 103.107C248.482 104.154 247.374 105.874 246.83 108.184C246.256 110.623 244.266 116.587 242.282 121.406L242.281 121.407C236.233 136.035 234.966 143.04 232.705 172.431C230.584 202.413 229.45 210.085 224.771 226.954C221.789 238.031 216.714 249.243 210.964 258.365C205.227 267.466 198.767 274.568 192.979 277.317H192.978C190.219 278.624 185.48 279.628 182.303 279.628C179.945 279.628 178.262 279.415 176.691 278.64C175.133 277.87 173.735 276.569 171.893 274.514L171.891 274.511C169.158 271.419 167.492 268.806 166.074 263.53C164.668 258.296 163.497 250.413 161.731 236.781L161.163 232.491C158.38 211.96 156.452 204.833 151.324 195.104L151.322 195.101C148.442 189.55 145.293 185.22 142.131 182.284C138.963 179.343 135.828 177.841 132.964 177.841C131.789 177.841 130.372 178.345 128.804 179.32C127.243 180.291 125.574 181.7 123.906 183.446C120.572 186.938 117.281 191.731 114.899 196.912C109.984 207.867 107.164 220.105 104.055 245.824V245.825C102.43 258.964 100.514 267.41 97.3398 272.568C95.7411 275.166 93.8162 276.944 91.4463 278.064C89.085 279.181 86.3178 279.628 83.0596 279.628C80.5515 279.628 78.5147 279.377 76.5566 278.718C74.6 278.059 72.751 277.003 70.6064 275.431L70.6035 275.43C60.5839 267.987 52.3436 254.296 44.7012 232.36L44.165 230.834C38.7245 215.099 36.2769 200.315 34.4951 174.548V174.547C33.5046 159.901 33.0468 152.726 31.8691 146.24C30.6926 139.76 28.7965 133.964 24.9053 122.078L24.9043 122.075L18.3643 101.623L10.2285 101.217H10.2266C8.28383 101.111 6.76734 101.013 5.58398 100.876C4.4072 100.74 3.51738 100.562 2.84766 100.276C2.15479 99.9809 1.68937 99.5663 1.38184 98.9814C1.08996 98.4262 0.957856 97.7473 0.851562 96.9678L0.852539 96.9668C0.480096 94.5649 1.15657 92.6667 2.84082 91.458C4.48196 90.2803 6.99055 89.8249 10.1465 90.04H10.1553L14.5264 90.415L13.7129 76.998L13.6455 75.8213C12.9952 63.7276 13.9832 53.701 16.9365 44.8584C19.9868 35.7255 25.1233 27.8855 32.6611 20.3477C43.1947 9.81415 55.733 3.39959 69.8418 1.4043L70.9561 1.25195ZM202.66 101.5C190.077 101.5 181.783 101.606 176.586 101.888C173.984 102.029 172.18 102.214 171.008 102.445C170.419 102.561 170.018 102.684 169.763 102.805C169.49 102.934 169.483 103.013 169.492 102.981L169.479 103.022L169.461 103.062C169.391 103.201 169.294 103.548 169.191 104.117C169.093 104.665 168.997 105.364 168.909 106.162C168.734 107.756 168.594 109.723 168.523 111.621V111.632H168.522C168.237 116.48 167.236 119.875 164.996 122.265L164.993 122.268C164.281 123.016 163.645 123.639 162.669 124.111C161.702 124.579 160.437 124.883 158.48 125.089C154.577 125.499 147.721 125.533 134.519 125.533C126.324 125.533 120.134 125.524 115.451 125.294C110.781 125.064 107.546 124.612 105.296 123.693C102.998 122.755 101.725 121.33 100.986 119.235C100.268 117.197 100.054 114.514 99.8086 111.073V111.07L99.2725 102.914H31.4727L35.6035 113.973L35.6045 113.975C39.8436 125.491 42.1201 131.889 43.5957 139.338C45.0698 146.779 45.7421 155.26 46.8018 170.942C47.6496 182.671 49.2033 197.636 50.3301 204.257C53.7127 223.848 61.3247 242.762 69.0596 254.681C72.9378 260.657 76.7996 264.8 80.1182 266.438C81.7641 267.25 83.2208 267.419 84.4717 266.963C85.7241 266.506 86.8784 265.381 87.834 263.371C88.0235 262.924 88.3051 261.864 88.6475 260.275C88.9879 258.696 89.3803 256.64 89.7949 254.249C90.624 249.468 91.5418 243.362 92.3184 237.079V237.077C95.714 210.478 100.108 195.262 107.944 183.009L107.946 183.006C116.278 170.188 126.625 164.612 136.823 166.227C146.67 167.786 156.166 176.023 163.399 190.415L164.092 191.827L164.093 191.828C169.642 203.495 172.052 214.022 174.74 236.657L174.741 236.659C176.015 247.766 176.79 254.065 177.614 258.014C178.432 261.929 179.286 263.47 180.699 265.085C182.145 266.737 183.255 267.315 184.602 267.078C185.314 266.953 186.138 266.593 187.151 265.947C188.161 265.304 189.331 264.396 190.734 263.203C200.938 254.118 210.521 234.308 215.46 211.306L215.462 211.297C217.007 204.693 218.843 189.317 219.691 177.306C221.955 145.196 223.231 137.371 229.612 118.511C231.167 113.918 232.58 109.679 233.604 106.553C234.117 104.99 234.531 103.705 234.817 102.796C234.943 102.398 235.041 102.073 235.114 101.829C235.088 101.827 235.061 101.825 235.032 101.823C234.601 101.793 233.957 101.765 233.12 101.738C231.449 101.685 229.027 101.642 226.033 101.606C220.046 101.536 211.778 101.5 202.66 101.5ZM134.387 80.5771L112.526 80.9912L112.116 95.2188C112.046 99.3112 112.046 103.226 112.099 106.239C112.125 107.747 112.165 109.027 112.216 109.988C112.241 110.469 112.268 110.868 112.298 111.173C112.326 111.458 112.353 111.635 112.374 111.722C112.437 111.843 112.671 112.066 113.446 112.288C114.232 112.513 115.429 112.695 117.171 112.836C120.647 113.117 126.176 113.224 134.66 113.224H156.072V80.1621L134.387 80.5771ZM108.386 17.9346C84.6675 12.005 73.3381 11.7518 60.7588 16.5039L60.7578 16.5029C48.725 21.1211 36.9449 32.0566 30.9189 44.3887L30.917 44.3926C28.7259 48.7748 27.5886 51.2999 26.9844 54.459C26.3766 57.6369 26.3047 61.4736 26.3047 68.4844C26.3047 72.5735 26.4458 76.6985 26.6572 80.0811C26.8695 83.4774 27.1505 86.0794 27.4199 87.1611L28.3105 90.6006L63.6855 90.3213L98.8643 89.9023L99.668 81.8652L99.6689 81.8564C100.055 78.5563 100.378 75.9802 101.171 74.0225C101.985 72.0118 103.294 70.6488 105.585 69.751C107.832 68.8704 111.029 68.4359 115.629 68.2148C120.24 67.9933 126.325 67.9844 134.378 67.9844C147.227 67.9844 154.046 68.019 158.037 68.4287C160.038 68.6342 161.37 68.9378 162.412 69.3994C163.463 69.8654 164.186 70.4785 164.977 71.2334H164.976C167.351 73.4615 168.383 76.145 168.383 79.6533C168.383 82.4404 168.801 86.065 169.214 87.8662L170.089 90.7402L204.209 90.3213L238.328 89.9014L239.218 86.7285V86.7256C239.345 86.28 239.475 85.4123 239.595 84.1904C239.713 82.9815 239.818 81.4607 239.906 79.7334C240.082 76.2795 240.188 72.0118 240.188 67.7783C240.188 60.3426 240.116 56.3643 239.508 53.1328C238.903 49.9212 237.767 47.4319 235.574 42.9756C229.194 30.0044 219.533 21.1941 207.438 16.8242C195.712 12.5882 181.653 12.5089 166.01 16.9219L164.491 17.3633C154.286 20.4108 146.037 21.9784 137.439 22.0674C128.845 22.1563 119.929 20.7676 108.388 17.9355L108.386 17.9346Z" fill="white" stroke="white"/>
</svg>
