<svg width="326" height="293" viewBox="0 0 326 293" fill="none" xmlns="http://www.w3.org/2000/svg">
<path d="M267.408 174.025C270.383 170.907 273.627 169.41 277.304 169.614C280.721 169.804 284.436 171.46 288.583 174.482L289.419 175.105L289.421 175.107C299.828 183.124 309.067 186.907 315.451 189.749C318.621 191.16 321.16 192.368 322.743 193.777C323.546 194.492 324.129 195.28 324.42 196.199C324.712 197.121 324.694 198.128 324.374 199.249C324.019 200.495 323.108 201.252 321.889 201.628C320.694 201.996 319.179 202.011 317.498 201.8C314.128 201.377 309.896 200.017 305.778 198.411C301.652 196.802 297.605 194.932 294.591 193.465C293.083 192.731 291.833 192.098 290.959 191.647C290.522 191.422 290.179 191.243 289.945 191.12C289.829 191.059 289.739 191.011 289.679 190.979C289.648 190.962 289.625 190.95 289.609 190.941C289.602 190.937 289.596 190.935 289.592 190.933C289.59 190.932 289.589 190.93 289.588 190.93L289.586 190.929L289.538 190.903L289.498 190.869C286.61 188.404 283.758 186.185 281.51 184.587C280.385 183.787 279.417 183.146 278.674 182.708C278.302 182.489 277.994 182.325 277.757 182.218C277.638 182.164 277.544 182.128 277.473 182.105C277.396 182.081 277.371 182.082 277.382 182.082C277.13 182.082 276.943 182.108 276.791 182.166C276.647 182.221 276.507 182.315 276.364 182.49C276.056 182.868 275.748 183.604 275.432 185.047C274.803 187.91 274.205 193.21 273.214 202.979V202.981C269.955 233.874 259.463 259.302 243.1 275.665C237.496 281.269 232.61 285.126 227.436 287.704C222.256 290.285 216.817 291.569 210.126 292.067H210.123C206.02 292.35 203.316 292.391 200.794 291.938C198.267 291.483 195.954 290.538 192.622 288.907L192.618 288.906C182.886 284.04 175.461 276.028 169.909 263.927V263.926C167.363 258.41 165.475 254.855 163.906 252.82C163.122 251.803 162.45 251.212 161.858 250.93C161.295 250.661 160.781 250.662 160.237 250.891L160.229 250.895L160.219 250.897C160.183 250.911 160.07 250.98 159.873 251.178C159.688 251.364 159.466 251.626 159.212 251.962C158.704 252.633 158.092 253.566 157.416 254.697C156.066 256.959 154.484 259.982 153.006 263.22L153.003 263.227C148.316 273.098 142.828 280.42 136.327 285.255C130.021 289.945 122.79 292.276 114.478 292.352H113.656C109.669 292.209 104.101 291.356 101.21 290.344L101.206 290.343C88.0535 285.625 76.381 274.424 67.4375 259.004C58.7705 244.06 52.6445 225.119 50.208 204.167L49.9834 202.133C48.9922 192.716 48.3947 187.631 47.75 184.896C47.4252 183.517 47.1074 182.827 46.79 182.476C46.5165 182.172 46.2077 182.082 45.6748 182.082C45.6807 182.082 45.6545 182.082 45.583 182.104C45.5154 182.124 45.4263 182.157 45.3145 182.206C45.0902 182.305 44.8015 182.456 44.4531 182.659C43.7575 183.064 42.8559 183.656 41.8105 184.394C39.7212 185.868 37.0814 187.91 34.4043 190.164C30.8499 193.191 27.7897 196.15 25.0371 198.859C22.2895 201.563 19.835 204.031 17.5146 206.046C12.8751 210.075 8.63353 212.418 3.38965 211.238C2.7095 211.085 2.15157 210.832 1.73242 210.465C1.30669 210.092 1.0489 209.623 0.942383 209.089C0.736107 208.055 1.10357 206.817 1.75781 205.526C3.0791 202.92 5.77668 199.704 8.74219 196.603C11.7186 193.49 15.0059 190.452 17.5459 188.193C18.8164 187.064 19.9013 186.128 20.6689 185.475C21.0528 185.148 21.3576 184.892 21.5664 184.717C21.6708 184.629 21.7512 184.562 21.8057 184.517C21.8326 184.494 21.8533 184.477 21.8672 184.466C21.8741 184.46 21.8792 184.455 21.8828 184.452C21.8846 184.451 21.8868 184.45 21.8877 184.449L21.8887 184.448L21.8926 184.445C30.0803 177.81 34.7424 174.142 38.1211 172.14C39.8202 171.133 41.213 170.535 42.582 170.193C43.9497 169.852 45.2695 169.772 46.8057 169.772C48.8259 169.772 50.4531 170.025 51.9131 170.643C53.1916 171.184 54.3133 171.993 55.4463 173.107L55.9336 173.604L55.9365 173.607C56.8568 174.599 57.5975 175.437 58.2061 176.469C58.8171 177.504 59.2832 178.712 59.6973 180.44C60.5196 183.873 61.159 189.462 62.2881 200.047L62.5381 202.187C65.2553 224.206 71.9524 243.438 80.9248 257.279C90.1965 271.583 101.833 280.042 113.957 280.042C120.145 280.042 125.152 278.413 129.699 274.609C134.267 270.789 138.4 264.749 142.771 255.864L142.772 255.863C145.956 249.425 148.64 245.146 151.522 242.481C154.437 239.787 157.532 238.762 161.457 238.762C165.439 238.762 168.535 239.709 171.332 242.192C173.926 244.496 176.231 248.096 178.784 253.379L179.299 254.458L179.301 254.463C184.654 266.156 190.709 273.744 197.548 277.397C204.355 281.033 212.029 280.817 220.761 276.696L220.768 276.694C230.28 272.358 235.585 267.479 242.331 257.501C252.869 241.764 259.217 220.227 262.04 191.712L262.246 189.648C262.716 185.074 263.124 182.137 263.772 179.955C264.526 177.417 265.605 175.901 267.408 174.025Z" fill="white" stroke="white"/>
<path d="M185.361 5.93848C206.159 0.420774 213.741 -0.451855 224.739 1.54785H224.741C236.627 3.75916 247.83 9.85087 257.061 19.0303L257.947 19.9287L257.951 19.9316C269.194 31.7433 275.361 44.9624 276.536 60.9014C277.71 76.8205 273.901 95.418 265.266 117.998L265.267 117.999C259.21 134.057 256.531 148 255.402 169.591C254.128 195.64 249.738 218.28 242.928 235.749C236.123 253.204 226.871 265.571 215.82 270.953C212.208 272.724 209.585 273.684 207.178 273.795C204.746 273.907 202.599 273.151 199.945 271.645V271.644C197.856 270.52 195.683 268.105 193.849 265.166C192.002 262.208 190.459 258.658 189.668 255.205L189.666 255.198C189.236 253.192 187.82 243.413 186.549 233.243L186.548 233.24C183.013 203.69 178.358 190.009 169.173 181.38L169.17 181.378C165.643 178.023 162.198 176.884 158.949 177.575C155.672 178.272 152.453 180.859 149.465 185.271C143.489 194.096 138.624 209.939 136.082 231.12L136.081 231.128C135.092 238.477 133.677 248.664 132.827 253.623L132.826 253.622C131.33 262.669 127.71 268.762 122.537 271.34C117.347 273.925 110.788 272.879 103.644 268.093V268.094C93.9812 261.724 86.1542 250.555 80.2666 235.056C74.3774 219.552 70.4128 199.674 68.502 175.824V175.823C65.9581 143.177 64.6888 136.027 58.7783 120.688V120.687C44.0592 82.0488 42.4461 57.565 53.2842 35.7461C64.9302 12.0355 90.9327 -1.86406 117.295 1.37695L118.551 1.54492L118.562 1.5459V1.54688C123.351 2.34497 132.239 4.26164 139.169 6.13281L140.527 6.50586L140.528 6.50684C148.772 8.83208 155.19 9.95079 161.928 9.86328C168.671 9.77566 175.763 8.47908 185.361 5.93848ZM113.561 13.1738C108.591 12.5811 105.253 12.9277 100.622 13.8398C79.0631 18.3218 63.6615 34.4116 59.5957 56.9766C57.3575 69.8465 59.7194 83.3111 69.4736 112.291L77.8145 137.03L77.834 137.089L77.8389 137.15L80.1016 165.142V165.144C83.9193 214.632 91.8346 240.735 106.943 254.726L107.596 255.316C110.812 258.181 113.334 259.703 115.241 260.026C116.233 260.194 117.035 260.034 117.697 259.589C118.37 259.137 118.954 258.354 119.427 257.176C119.584 256.767 119.824 255.729 120.122 254.148C120.417 252.587 120.76 250.543 121.131 248.16C121.872 243.395 122.72 237.286 123.497 230.999V230.997C125.762 213.306 128.95 199.472 133.286 189.075C137.624 178.676 143.127 171.678 150.04 167.717C156.959 163.611 163.96 163.311 170.519 166.645C177.048 169.964 183.084 176.854 188.198 187.011H188.197C193.61 197.694 196.022 207.803 199.274 232.406L199.569 234.518C200.269 239.423 201.032 244.149 201.727 248.008C202.524 252.438 203.223 255.671 203.628 256.753C204.14 258.013 204.733 258.888 205.402 259.425C206.058 259.951 206.816 260.177 207.727 260.092C208.656 260.004 209.76 259.59 211.071 258.791C212.379 257.994 213.864 256.834 215.547 255.291L215.551 255.287C231.928 240.59 239.419 216.467 243.095 166.418C244.084 152.853 244.721 145.229 245.697 139.353C246.676 133.459 247.997 129.327 250.332 122.745L252.451 116.726C257.087 103.518 259.605 95.9912 260.989 89.9141C262.566 82.9928 262.673 77.9529 262.744 68.4805V68.4795C262.815 60.3395 262.778 55.8207 262.307 52.4365C261.84 49.083 260.946 46.8394 259.257 43.25V43.249C251.827 27.8322 240.636 18.6029 224.242 14.3994V14.3984C219.191 13.1357 215.54 12.6171 210.297 13.1396C205.022 13.6653 198.132 15.2454 186.604 18.2158H186.604C176.41 20.8349 169.011 22.1553 161.58 22.1553C154.149 22.1552 146.715 20.8357 136.452 18.2168L136.45 18.2158C125.205 15.3162 118.558 13.77 113.561 13.1738Z" fill="white" stroke="white"/>
</svg>
