<svg width="304" height="283" viewBox="0 0 304 283" fill="none" xmlns="http://www.w3.org/2000/svg">
<path d="M170.605 1.30469C177.101 1.30469 180.86 1.40891 184.096 2.03809C187.343 2.66961 190.044 3.82637 194.426 5.87598H194.427C210.549 13.4467 223.49 27.498 230.136 44.2275L230.448 45.0264L230.45 45.0342L232.798 51.4639L233.298 31.3389C233.439 22.7865 233.687 16.9384 234.078 12.9941C234.274 11.0223 234.506 9.51215 234.783 8.37109C235.058 7.23899 235.388 6.42492 235.805 5.88281L235.813 5.87109L235.823 5.85938C236.88 4.64048 238.295 4.02977 242.19 3.74512C246.088 3.46034 252.618 3.49611 264.061 3.70801H264.06L289.931 4.13184L290.129 4.13574L290.271 4.27344L295.218 9.0791C299.733 13.4511 302.281 18.2201 302.772 23.1191C303.265 28.022 301.691 32.9873 298.097 37.7324L298.096 37.7314C293.141 44.2894 284.589 47.1217 271.099 46.5537H271.098C266.307 46.3424 263.385 46.1295 261.449 45.6182C260.468 45.359 259.715 45.0172 259.089 44.5439C258.468 44.0744 258 43.496 257.56 42.8018C256.656 41.481 256.102 40.475 256.259 39.4238C256.337 38.898 256.585 38.4107 256.953 37.9092C257.32 37.4103 257.829 36.8664 258.467 36.2285C259.801 34.8948 261.054 34.0991 263.264 33.6533C265.424 33.2176 268.515 33.1133 273.523 33.1133C278.552 33.1133 281.577 33.0059 283.606 32.6104C284.612 32.4144 285.353 32.151 285.961 31.8066C286.567 31.4634 287.064 31.0265 287.568 30.4551L287.576 30.4463L287.879 30.1016C290.893 26.477 290.393 20.997 286.92 18.167V18.166C286.245 17.6266 285.593 17.217 284.744 16.9004C283.886 16.5806 282.806 16.348 281.266 16.1914C278.174 15.877 273.33 15.8751 264.91 16.0166L246.313 16.4297L246.173 145.438C246.102 199.228 245.997 231.712 245.696 250.979C245.546 260.61 245.347 266.948 245.079 270.995C244.945 273.017 244.793 274.481 244.618 275.503C244.531 276.014 244.435 276.428 244.329 276.751C244.232 277.047 244.111 277.311 243.945 277.503L243.946 277.504C242.629 279.187 241.173 280.084 239.618 279.938C238.088 279.793 236.667 278.652 235.367 276.775L235.262 276.614C234.743 275.775 234.378 274.397 234.09 271.794C233.78 268.992 233.555 264.68 233.387 257.911C233.051 244.368 232.945 220.928 232.874 179.934L232.809 161.249C232.732 143.184 232.622 127.165 232.503 114.854C232.423 106.646 232.339 100.087 232.258 95.6689C232.232 94.2787 232.204 93.1016 232.179 92.1523C230.792 96.5623 227.917 105.461 224.801 114.917C220.415 128.215 218.237 134.895 216.919 142.151C215.6 149.413 215.142 157.259 214.223 172.893C213.516 186.178 211.959 202.453 210.681 209.139L210.682 209.14C207.279 228.774 200.474 246.826 192.307 259.982C188.223 266.56 183.789 271.931 179.255 275.662C174.724 279.391 170.055 281.513 165.516 281.513C162.554 281.513 160.002 280.952 157.802 279.635C155.601 278.317 153.794 276.267 152.278 273.362C149.261 267.579 147.347 258.303 145.792 244.312V244.309C142.114 209.365 137.876 195.99 128.423 187.37H128.422C125.205 184.433 122.442 182.926 119.684 182.675C116.931 182.425 114.078 183.417 110.66 185.719L110.658 185.721C105.488 189.168 101.437 195.198 98.1846 204.937C94.9325 214.675 92.4986 228.063 90.5205 246.148C89.3897 256.467 88.2907 263.405 86.7188 268.335C85.1386 273.291 83.0718 276.248 80.0068 278.583L80.0059 278.582C77.6251 280.51 74.0771 281.442 70.4287 281.46C66.7667 281.478 62.9249 280.577 59.9336 278.753L59.9316 278.752C52.24 274.008 44.6961 263.54 38.4287 249.943C32.1517 236.325 27.1199 219.492 24.498 201.919V201.918C23.3639 194.544 21.8079 178.274 21.1006 165.827C20.3232 153.813 19.6542 146.673 17.8965 138.886C16.3569 132.065 13.9803 124.74 9.95215 113.209L8.12207 107.999C5.43664 100.367 3.90521 95.6706 2.97852 91.0371C2.05119 86.4004 1.73302 81.8416 1.4502 74.4883V74.4863C1.03915 62.1549 1.28731 56.528 3.12598 50.1992L3.30859 49.584C8.72116 30.5068 21.2569 15.5539 39.1924 6.72852L39.1943 6.72754C44.4132 4.18862 47.3307 2.81566 50.6514 2.09375C53.9655 1.37328 57.6635 1.30469 64.4355 1.30469C70.4504 1.30469 74.5467 1.48084 78.4033 2.08789C82.2614 2.6952 85.8617 3.73084 90.8877 5.42969L92.623 5.99414C101.19 8.72731 108.136 10.1487 115.16 10.2637C122.653 10.3862 130.27 9.02241 140.069 6.13184L140.07 6.13086C153.676 2.16258 158.672 1.30469 170.605 1.30469ZM74.0371 13.6602C70.3796 13.0506 67.3474 13.0486 63.0547 13.3301L63.0508 13.3311C36.4646 14.8703 15.4423 36.8421 13.7578 64.7402C13.0775 77.8032 14.7638 87.8333 20.8994 105.767L21.5068 107.527V107.529C25.9595 120.463 28.5489 128.511 30.1992 135.964C31.8509 143.423 32.5603 150.274 33.2676 160.812L33.5996 165.597C35.0938 186.898 35.8628 194.324 37.8945 205.975L38.3496 208.542V208.543C40.3212 219.668 44.0556 231.47 48.5117 241.58C52.9749 251.706 58.1354 260.073 62.9316 264.383L62.9326 264.384C64.381 265.691 65.5098 266.679 66.4297 267.403C67.3537 268.131 68.0391 268.569 68.6006 268.798C69.1433 269.02 69.5607 269.043 69.9727 268.941C70.4101 268.833 70.8791 268.577 71.5098 268.156C73.0491 267.13 74.2094 265.337 75.2422 261.188C76.2751 257.039 77.1561 250.64 78.2168 240.528C80.1978 221.779 83.1013 207.45 87.2598 196.733C91.4207 186.011 96.8509 178.873 103.899 174.558C110.055 170.765 116.12 169.277 121.84 169.903C127.56 170.529 132.886 173.264 137.572 177.824C146.931 186.933 153.777 203.358 156.258 225.114C158.593 245.706 159.862 256.439 161.282 262.034C161.995 264.841 162.721 266.241 163.545 266.961C164.342 267.658 165.312 267.789 166.788 267.789C167.921 267.789 169.227 267.307 170.683 266.301C172.135 265.297 173.702 263.795 175.346 261.819C178.632 257.869 182.181 252.077 185.705 244.746L185.707 244.742C194.155 227.564 198.95 208.262 200.643 184.844C202.338 161.317 203.224 149.378 204.766 140.072C206.31 130.75 208.514 124.069 212.824 111.068C216.787 98.8981 218.789 92.7486 219.824 87.5371C220.856 82.3432 220.928 78.0787 220.999 69.6631L220.994 66.8525C220.973 60.665 220.862 56.9826 220.404 54.1016C219.886 50.8387 218.925 48.5966 217.092 44.8604L217.091 44.8594C211.339 33.0755 202.086 23.5485 191.168 18.2295L191.166 18.2285C186.853 16.1072 184.289 14.9684 181.354 14.3643C178.411 13.7583 175.071 13.6851 169.197 13.7559H169.191C158.931 13.7559 153.893 14.5933 142.627 18.2549L142.625 18.2559C132.701 21.4457 124.693 23.0517 116.438 22.9805C108.186 22.9092 99.7205 21.1616 88.8818 17.6904C82.0247 15.499 77.7085 14.2721 74.0371 13.6602Z" fill="white" stroke="white"/>
<path d="M271.807 53.1885C282.221 52.7634 289.733 53.8876 294.795 56.9717C299.902 60.0835 302.429 65.1334 303.003 72.3086V72.3105C303.283 75.9541 303.408 78.0523 302.71 79.9766C302.014 81.8938 300.518 83.597 297.782 86.543L297.777 86.5479L291.981 92.627L291.839 92.7764L291.632 92.7812L274.952 93.2051C270.35 93.3467 266.063 93.3476 262.834 93.2412C261.221 93.188 259.864 93.1082 258.862 93.0049C258.363 92.9533 257.941 92.895 257.616 92.8291C257.454 92.7962 257.307 92.7596 257.182 92.7178C257.067 92.6796 256.927 92.6228 256.812 92.5312L256.791 92.5137L256.771 92.4941C256.181 91.9038 255.839 91.0798 255.685 90.1963C255.529 89.3091 255.555 88.3253 255.731 87.3672C256.08 85.4776 257.048 83.5419 258.57 82.6602L258.592 82.6475L258.614 82.6377C259.067 82.432 259.83 82.2467 260.775 82.0811C261.737 81.9126 262.934 81.7564 264.285 81.623C266.988 81.3563 270.327 81.1787 273.665 81.1787C278.834 81.1787 281.932 81.0711 284.034 80.6748C286.089 80.2873 287.165 79.6296 288.297 78.498C290.078 76.717 290.869 75.0022 290.837 73.3828C290.805 71.765 289.95 70.1188 288.175 68.4785C287.129 67.5653 285.733 66.8875 283.366 66.3691C280.986 65.848 277.662 65.4964 272.788 65.2139V65.2129C267.702 64.9303 264.378 64.6117 262.16 64.125C259.937 63.637 258.728 62.9604 257.986 61.8887L257.979 61.8779L257.971 61.8662C257.377 60.9012 257.049 59.9967 257.049 59.0771C257.049 58.1561 257.378 57.2851 257.977 56.3857L258.118 56.1777C258.853 55.1587 259.967 54.4947 261.926 54.0479C263.993 53.5765 267.076 53.3298 271.807 53.1885Z" fill="white" stroke="white"/>
</svg>
