<svg width="320" height="284" viewBox="0 0 320 284" fill="none" xmlns="http://www.w3.org/2000/svg">
<path d="M145.939 4.62109C160.375 0.771697 169.541 0.371852 179.971 3.20801L180.984 3.49316L180.988 3.49414C191.97 6.77436 199.253 11.4922 208.209 20.875L208.21 20.876C218.673 31.9087 224.21 43.7534 224.888 58.4482C225.564 73.1153 221.398 90.5833 212.554 112.872L212.553 112.873L209.801 119.753L214.672 131.582H214.671C218 139.306 219.712 145.921 220.383 152.123L220.504 153.359V153.364C220.681 155.701 220.821 157.452 221.009 158.814C221.196 160.178 221.427 161.113 221.766 161.83C222.425 163.227 223.532 163.9 226.025 165.254L226.593 165.556C229.541 167.202 234.114 170.92 237.054 174.127C249.047 187.12 254.996 205.926 257.685 238.75C258.533 249.138 259.484 256.635 260.624 261.526C261.195 263.976 261.805 265.736 262.451 266.872C263.106 268.024 263.719 268.402 264.255 268.402C264.852 268.402 265.615 268.12 266.54 267.495C267.457 266.876 268.484 265.953 269.596 264.754C271.819 262.357 274.336 258.905 276.942 254.713C282.154 246.333 287.688 235.055 291.918 223.492V223.491C300.953 198.926 303.763 185.839 303.904 167.822L303.899 165.014C303.878 158.833 303.767 155.185 303.31 152.351C302.793 149.146 301.834 146.977 300.004 143.317C297.746 139.084 294.382 133.909 292.316 131.844L292.31 131.837L292.304 131.83L288.775 128.031H221.428L221.28 127.801L219.019 124.267V124.266C218.103 122.857 217.543 121.778 217.44 120.798C217.332 119.759 217.742 118.92 218.49 118.022C218.949 117.436 219.708 117.042 220.92 116.75C222.147 116.454 223.92 116.244 226.497 116.094C231.657 115.792 240.156 115.722 254.217 115.722C263.838 115.722 270.842 115.784 276.057 115.641C281.281 115.497 284.646 115.147 287.016 114.352C289.341 113.571 290.715 112.357 291.944 110.408C293.204 108.411 294.283 105.696 296.032 101.876C301.804 88.9227 306.308 69.3448 306.308 57.4111C306.308 40.1965 297.495 25.3975 282.981 18.4199L282.975 18.416C277.51 15.6838 272.524 14.223 267.129 13.9619C261.727 13.7005 255.883 14.6391 248.703 16.751L248.704 16.752C239.178 19.5745 233.616 21.075 230.204 21.4521C228.495 21.641 227.256 21.5575 226.306 21.168C225.331 20.7685 224.728 20.0751 224.235 19.2041L224.232 19.2002C223.634 18.1157 223.352 17.06 223.495 16.0186C223.638 14.9746 224.199 14.0202 225.138 13.1191C226.99 11.3416 230.441 9.65087 235.667 7.74414C250.409 2.35774 265.077 0.344471 274.684 2.49512V2.49609C296.928 7.48678 314.187 25.1684 318.184 47.5645C319.686 55.5777 318.752 67.4233 316.185 79.5332C313.615 91.6534 309.395 104.109 304.275 113.354L304.273 113.357L300.185 120.58L306.23 129.511L307.074 130.76C311.191 136.934 313.767 142.079 315.21 148.054C316.747 154.416 316.991 161.685 316.496 172.087C315.644 190.963 310.253 212.509 300.626 236.292L300.625 236.295C292.91 255.052 284.318 268.361 276.059 275.155C271.925 278.555 267.83 280.359 263.938 280.341C260.028 280.322 256.417 278.464 253.27 274.738V274.737C248.341 268.938 247.071 263.245 245.236 240.104L245.003 237.373C242.504 209.548 237.292 193.514 227.259 181.718L227.258 181.717C225.927 180.14 224.79 179.063 223.829 178.454C222.866 177.844 222.168 177.757 221.642 177.97C221.092 178.192 220.551 178.81 220.073 180.026C219.601 181.229 219.227 182.922 218.946 185.133C216.673 203.6 205.19 233.638 192.862 253.475L192.86 253.478C186.77 263.109 181.085 270.259 175.644 275.005C170.2 279.752 164.963 282.126 159.781 282.126C157.172 282.126 154.351 281.012 151.838 279.204C149.322 277.394 147.076 274.861 145.624 271.959C145.063 270.875 144.451 268.904 143.822 266.328C143.189 263.736 142.529 260.487 141.883 256.813C140.591 249.467 139.351 240.407 138.502 231.489C137.093 217.536 133.005 202.337 127.956 192.94V192.939C124.445 186.409 120.564 182.476 116.585 181.07C112.652 179.681 108.49 180.72 104.271 184.454L104.269 184.456C99.8415 188.33 96.5226 193.887 93.7637 203.288C91.0022 212.698 88.8149 225.915 86.624 245.067C85.2113 257.358 84.0762 264.934 82.4873 270.058C80.8849 275.225 78.812 277.928 75.5488 280.466L75.5479 280.465C72.8403 282.586 69.8245 283.546 66.5195 283.362C63.2274 283.179 59.6816 281.866 55.8916 279.506L55.8867 279.502C50.8926 276.304 45.6522 270.578 40.5459 263.219C35.4337 255.851 30.4314 246.811 25.9248 236.948C16.9136 217.226 9.86103 194.164 7.875 174.517V174.516C6.31215 158.603 8.16106 146.496 14.2803 133.119L19.4141 121.879L13.7158 109.647L13.7148 109.646C4.36523 89.388 0.196486 71.8756 1.31836 56.7031C2.44165 41.512 8.86626 28.708 20.6162 17.8838C29.6982 9.44066 37.6939 4.46367 47.0234 2.51172C56.3404 0.562491 66.9246 1.64416 81.1543 5.18359H81.1553C89.913 7.30669 99.9959 9.54295 104.566 10.1602L105.405 10.2617L105.419 10.2627C113.937 11.3797 128.556 9.28455 145.938 4.62109H145.939ZM167.557 13.5205C165.986 13.5205 162.639 14.0052 158.479 14.8018C154.337 15.595 149.435 16.6886 144.779 17.8877L144.778 17.8867C121.379 23.9843 102.769 24.1324 82.3145 18.3086V18.3076C61.8346 12.6583 52.9508 12.4274 43.6592 17.1426L43.6553 17.1445C35.572 21.151 29.4473 25.7061 24.8193 31.2422C20.1924 36.777 17.0413 43.3165 14.9355 51.3184C11.3051 65.8468 13.9295 79.4261 26.2188 107.112L26.7432 108.31C27.9508 111.102 29.0297 113.862 29.8379 116.162C30.2996 117.476 30.6752 118.645 30.9355 119.588C31.1902 120.51 31.3506 121.27 31.3506 121.735C31.3505 122.202 31.1801 122.991 30.9131 123.956C30.6399 124.944 30.2475 126.178 29.7686 127.57C28.8104 130.356 27.4991 133.794 26.082 137.195C23.8929 142.562 22.599 146.099 21.7783 149.73C20.9577 153.362 20.6057 157.109 20.3232 162.898C20.1118 168.681 20.1489 172.572 20.6914 176.807C21.2349 181.049 22.2882 185.653 24.126 192.862H24.125C28.2877 208.948 34.0028 224.467 40.2432 237.389C46.2946 249.919 52.8203 259.965 58.877 265.727L59.4619 266.271L60.0439 266.796C61.378 267.984 62.539 268.915 63.5576 269.602C64.726 270.389 65.6785 270.834 66.4688 270.992C67.2391 271.146 67.8541 271.028 68.3945 270.675C68.9543 270.309 69.4789 269.661 69.9902 268.673L70.0059 268.646C70.1803 268.355 70.4046 267.759 70.6543 266.882C70.8994 266.021 71.1574 264.933 71.4121 263.694C71.9214 261.218 72.4138 258.158 72.7656 255.132C73.4721 249.056 74.7453 237.741 75.7354 229.962C77.365 215.936 80.306 203.594 84.2666 193.719C88.2238 183.852 93.218 176.402 98.9814 172.224C101.259 170.516 103.043 169.454 105.064 168.829C107.082 168.205 109.3 168.029 112.422 168.029C116.986 168.029 120.564 168.599 123.764 170.071C126.961 171.543 129.736 173.895 132.729 177.385L133.232 177.956C143.731 190.004 148.322 205.182 152.22 238.449V238.45C153.068 245.799 153.844 251.619 154.646 256.141C155.448 260.67 156.27 263.864 157.199 265.98C158.133 268.108 159.118 269.018 160.171 269.229C161.26 269.448 162.63 268.971 164.454 267.778C171.207 263.323 178.581 253.938 185.444 241.535C192.298 229.149 198.611 213.809 203.267 197.514C205.173 190.734 206.261 186.273 206.893 181.679C207.524 177.084 207.701 172.341 207.771 164.995L207.768 162.207C207.747 156.058 207.635 152.327 207.177 149.289C206.657 145.839 205.689 143.273 203.854 139.04V139.039C199.916 130.178 197.88 125.62 197.717 121.188C197.553 116.746 199.27 112.461 202.576 104.161C213.724 75.9374 215.085 58.0001 207.533 41.2178C204.113 33.6097 197.923 26.6785 190.669 21.6494C183.412 16.6186 175.133 13.5205 167.557 13.5205Z" fill="white" stroke="white"/>
<path d="M43.8535 119.564C44.5889 119.232 45.5288 119.153 46.8906 119.279C49.6043 119.531 54.3167 120.64 63.2002 122.755H63.2031C100.309 131.784 131.187 131.924 166.729 123.18C174.916 121.133 180.213 120.124 183.473 120.196C185.102 120.232 186.319 120.539 187.13 121.213C187.966 121.908 188.273 122.909 188.273 124.089C188.273 125.025 187.796 125.926 187.017 126.769C186.234 127.615 185.106 128.45 183.697 129.269C180.878 130.906 176.848 132.523 171.963 134.021C162.492 136.926 149.726 139.41 136.124 140.722L134.805 140.845C117.385 142.403 111.982 142.402 93.7158 140.703H93.7148C81.744 139.57 69.736 137.409 60.3242 134.928C55.6194 133.687 51.5513 132.364 48.457 131.043C46.9106 130.383 45.5967 129.719 44.5645 129.062C43.549 128.414 42.7668 127.747 42.3184 127.062V127.063C41.4734 125.866 40.959 124.94 40.9375 123.994C40.9158 123.033 41.4034 122.17 42.1826 121.107C42.6472 120.464 43.1096 119.9 43.8535 119.564Z" fill="white" stroke="white"/>
</svg>
