<svg width="231" height="262" viewBox="0 0 231 262" fill="none" xmlns="http://www.w3.org/2000/svg">
<path d="M140.401 5.34766C153.001 2.16238 162.735 0.63058 171.3 0.808594C179.876 0.986903 187.26 2.87906 195.16 6.50879L195.162 6.50977C199.961 8.73033 205.377 12.6547 210.226 17.1836C215.074 21.7126 219.39 26.8785 221.969 31.6055C225.402 37.8989 227.888 46.9421 229.076 55.9717C230.264 64.9977 230.166 74.087 228.373 80.4707C228.054 81.6052 227.764 82.5239 227.45 83.2578C227.136 83.9927 226.785 84.5729 226.328 85.0088C225.394 85.9001 224.146 86.0654 222.378 86.0654C221.123 86.0654 219.963 85.8453 219.1 85.5C218.67 85.3281 218.291 85.1156 218.01 84.8652C217.751 84.6348 217.525 84.3226 217.5 83.9404L217.471 83.6523C217.442 83.2896 217.416 82.7076 217.39 81.9648C217.354 80.9588 217.319 79.622 217.283 78.0488C217.212 74.9024 217.142 70.8026 217.071 66.4922L217.013 64.2744C216.715 54.3078 216.027 49.5808 214.021 44.1006L213.571 42.9131C211.41 37.405 207.565 31.877 202.938 27.2324C198.311 22.5869 192.926 18.8524 187.708 16.9043V16.9033C180.808 14.3688 175.71 13.0827 169.714 13.0479C163.7 13.0129 156.754 14.2365 146.154 16.7803H146.153C137.813 18.7594 132.591 19.8616 127.981 20.3955C123.364 20.9303 119.374 20.8935 113.498 20.6104H113.494C105.967 20.1843 93.0718 18.1993 84.4219 16.0723H84.4209C75.6 13.8847 69.1111 12.8366 63.2031 12.9414C57.3043 13.0461 51.9547 14.3009 45.416 16.7617L45.415 16.7627C29.3428 22.7723 16.3069 39.5733 13.7852 57.9248V57.9268C11.6827 72.9243 14.0477 85.2672 24.2168 111.255H24.2178C27.4749 119.61 29.3252 125.053 30.7646 133.459C32.0211 140.796 32.9647 150.391 34.2695 166.166L34.8525 173.317V173.319C35.9095 187.271 38.9751 201.4 43.2549 213.553C47.4046 225.336 52.6809 235.216 58.3379 241.28L58.8867 241.855V241.856C61.4509 244.491 63.6525 246.151 65.5322 246.876C67.3756 247.587 68.8807 247.393 70.1768 246.341C71.519 245.251 72.6976 243.192 73.6982 240.026C74.6943 236.875 75.4934 232.695 76.1279 227.442V227.44C80.2284 194.354 85.1879 178.803 95.4795 167.368L95.4805 167.366C98.9613 163.53 101.943 160.97 105.097 159.375C108.26 157.775 111.559 157.165 115.643 157.165C120.149 157.165 123.867 157.846 127.345 159.512C130.816 161.175 134.01 163.804 137.496 167.645H137.497C143.121 173.696 146.768 179.27 149.463 187.336C151.982 194.875 153.665 204.582 155.38 218.871L155.724 221.79V221.796C156.288 227.228 157.029 232.554 157.752 236.766C158.113 238.872 158.469 240.695 158.795 242.112C159.084 243.37 159.343 244.268 159.548 244.763L159.632 244.95L159.635 244.956C160.592 246.94 161.75 248.098 163.021 248.571C164.284 249.041 165.767 248.876 167.47 247.982C170.907 246.179 175.019 241.516 179.394 234.036L179.395 234.033C191.072 214.337 196.576 192.795 199.26 155.509V155.505C199.826 148.362 200.427 142.413 201.048 137.998C201.358 135.792 201.674 133.96 201.994 132.552C202.308 131.17 202.641 130.127 203.011 129.549L203.259 129.179C204.535 127.379 206.377 126.353 208.123 126.189C209.994 126.014 211.786 126.84 212.52 128.776C212.615 129.009 212.666 129.378 212.699 129.79C212.735 130.227 212.756 130.788 212.765 131.455C212.782 132.79 212.75 134.577 212.677 136.693C212.531 140.929 212.221 146.511 211.814 152.504C211.001 164.488 209.799 178.143 208.736 186.006V186.008C206.608 201.333 201.288 217.783 194.712 231.309C191.423 238.072 187.815 244.115 184.125 248.926C180.443 253.727 176.652 257.335 172.986 259.188L172.987 259.188C166.047 262.803 157.606 261.967 152.758 257.267L152.747 257.256C150.209 254.645 148.614 252.129 147.216 246.93C145.827 241.767 144.621 233.922 142.855 220.643L142.231 216.142C139.166 194.581 136.851 186.914 131.499 179.735L131.493 179.727C129.413 176.814 126.599 174.242 123.682 172.401C120.755 170.555 117.774 169.475 115.36 169.475C113.471 169.475 110.821 170.636 108.176 172.527C105.552 174.404 103.02 176.936 101.364 179.557L101.365 179.558C96.1933 187.945 92.9522 199.729 89.8428 221.212C87.7235 236.258 85.5595 245.921 82.4199 251.823C80.8424 254.789 79.004 256.835 76.7764 258.133C74.5501 259.43 71.9813 259.952 68.9902 259.952C57.9587 259.952 48.2166 251.816 39.0068 235.238V235.239C28.3524 216.203 23.6788 196.61 21.1318 161.236L20.96 158.952C19.1774 135.807 17.2586 126.777 10.8516 111.918L10.8496 111.913C2.91349 93.0647 0.773438 83.6676 0.773438 67.1875C0.773443 55.4255 1.48207 50.4125 3.91309 43.6914L3.91504 43.6875C10.6075 25.6041 24.7063 11.0719 42.3799 4.51562C54.6726 -0.199285 73.3065 -0.0372374 92.0205 4.9248H92.0195C110.177 9.7106 122.673 9.84975 140.4 5.34766H140.401Z" fill="white" stroke="white"/>
<path d="M161.981 32.0811C163.628 31.3262 165.321 31.3205 166.743 31.9854C168.165 32.6501 169.264 33.9608 169.771 35.7441L169.864 36.1074L169.866 36.1191L169.868 36.1299C170.115 37.4876 170.904 41.6588 171.759 45.8018L172.128 47.5674L172.13 47.5762C177.107 73.2894 193.353 90.9131 216.429 95.5977L217.533 95.8105L217.538 95.8115L218.409 95.9854C222.679 96.862 225.676 97.8575 227.49 99.166C228.471 99.8734 229.133 100.691 229.448 101.653C229.763 102.614 229.711 103.66 229.373 104.787L229.37 104.794L229.368 104.802C228.816 106.457 227.521 107.68 225.605 108.479C223.7 109.275 221.151 109.667 218.008 109.667C216.513 109.667 214.35 110.222 211.796 111.209C209.256 112.19 206.38 113.579 203.479 115.205C197.67 118.462 191.818 122.638 188.404 126.33L188.401 126.334C183.573 131.442 179.112 138.635 175.859 145.984C172.604 153.34 170.583 160.796 170.583 166.423C170.583 168.891 170.04 170.949 168.986 172.405C167.919 173.88 166.355 174.698 164.429 174.698C163.709 174.698 162.899 174.5 162.147 174.181C161.395 173.861 160.665 173.404 160.116 172.854C159.527 172.265 159.075 171.242 158.769 170.124C158.456 168.986 158.273 167.669 158.273 166.423C158.273 163.312 157.37 158.487 155.96 153.445C154.552 148.412 152.654 143.214 150.694 139.364L150.693 139.363C142.981 124.079 126.714 111.902 112.06 110.088V110.087C107.47 109.522 104.347 108.737 102.519 107.437C101.584 106.772 100.973 105.963 100.688 104.979C100.405 104.007 100.455 102.914 100.75 101.698L100.752 101.691L100.753 101.685C101.191 100.078 101.739 98.9618 103.138 98.2119C104.457 97.5044 106.5 97.1461 109.8 96.7949C120.015 95.3931 132.91 89.0811 139.894 81.8184L139.895 81.8174C148.152 73.2799 155.042 58.3948 157.149 45.0479V45.0449C157.787 41.1505 158.428 38.2197 159.131 36.1475C159.482 35.1111 159.855 34.2712 160.262 33.627C160.665 32.9879 161.121 32.5105 161.652 32.2422L161.981 32.0811ZM164.452 66.1309C164.396 66.2047 164.331 66.2966 164.257 66.4072C163.991 66.804 163.645 67.3893 163.241 68.127C162.435 69.599 161.415 71.6391 160.357 73.8955L160.355 73.8994C155.23 84.5771 146.402 94.5569 137.676 99.5635H137.675L131.529 103.075L136.25 105.617L136.256 105.62C140.148 107.782 145.283 112.463 149.922 117.634C154.419 122.646 158.509 128.183 160.587 132.439L160.782 132.848V132.849C161.694 134.812 162.64 136.563 163.408 137.837C163.793 138.475 164.128 138.987 164.39 139.344C164.465 139.446 164.533 139.533 164.592 139.604C164.611 139.58 164.634 139.555 164.655 139.526C164.849 139.266 165.093 138.877 165.371 138.381C165.926 137.393 166.59 136.031 167.221 134.559L167.224 134.551C170.943 126.254 180.339 115.303 189.727 108.618L197.198 103.112L189.602 98.1348V98.1338C180.192 92.1439 171.364 81.6109 167.364 72.0469L166.79 70.7549C166.227 69.5021 165.702 68.3783 165.257 67.5146C164.959 66.9363 164.705 66.4915 164.508 66.2051C164.489 66.1777 164.469 66.1538 164.452 66.1309Z" fill="white" stroke="white"/>
</svg>
